<?xml version="1.0"?>
<!DOCTYPE svg PUBLIC "-//W3C//DTD SVG 1.1//EN" "http://www.w3.org/Graphics/SVG/1.1/DTD/svg11.dtd">
<svg xmlns="http://www.w3.org/2000/svg" version="1.1">
<g transform="translate(24.2,30.5)" stroke-width="0" fill="none" >
<path  
style="fill:rgb(0,0,0);fill-opacity:1.0" 
d="M 24.5 -5.0
Q 24.4,-5.2,22.8,-4.8
Q 21.9,-4.6,20.8,-4.3
Q 19.9,-4.0,18.9,-3.6
Q 18.5,-3.4,17.7,-2.8
Q 17.7,-2.8,14.5,-1.1
Q 12.1,0.2,12.1,0.2
Q 12.1,0.1,12.0,-0.2
Q 11.9,-0.5,11.9,-0.5
Q 11.9,-0.5,12.1,-0.8
Q 12.4,-1.4,12.4,-1.4
Q 15.2,-3.2,16.4,-4.3
Q 18.3,-6.0,19.9,-8.5
Q 19.9,-8.5,20.1,-8.6
Q 21.1,-9.0,21.1,-9.0
Q 21.5,-9.2,21.6,-9.3
Q 21.8,-9.5,21.8,-9.5
Q 21.9,-9.7,21.9,-10.0
Q 21.9,-10.2,21.7,-10.4
Q 21.7,-10.5,21.5,-10.8
Q 21.2,-11.2,21.2,-11.3
Q 21.2,-11.3,20.8,-11.7
Q 20.4,-12.1,20.3,-12.1
Q 20.1,-12.1,19.7,-12.0
Q 19.5,-12.0,19.1,-12.0
Q 19.1,-12.0,19.0,-11.9
Q 19.0,-11.8,18.8,-11.6
Q 18.7,-11.0,18.6,-10.6
Q 18.6,-10.3,18.7,-9.8
Q 17.3,-8.6,16.2,-7.5
Q 15.6,-7.0,14.5,-5.7
Q 13.3,-5.2,12.3,-4.6
Q 11.9,-4.3,10.7,-3.6
Q 10.4,-3.6,10.1,-3.6
Q 9.8,-3.6,9.5,-3.6
Q 9.5,-3.6,9.3,-3.5
Q 9.3,-3.5,9.2,-3.5
Q 9.1,-3.5,9.0,-3.5
Q 9.0,-3.5,8.8,-3.4
Q 8.1,-3.6,7.9,-3.7
Q 7.7,-3.8,7.6,-4.5
Q 8.8,-4.5,9.3,-4.6
Q 10.7,-4.8,10.7,-5.3
Q 10.8,-5.5,10.8,-5.6
Q 10.8,-5.7,10.8,-5.7
Q 10.9,-6.1,10.9,-6.3
Q 10.8,-6.6,10.7,-6.8
Q 10.9,-7.3,10.9,-7.4
Q 10.9,-7.5,10.1,-8.0
Q 10.1,-8.0,10.1,-8.0
Q 10.1,-8.2,10.1,-8.2
Q 10.1,-8.3,10.2,-8.4
Q 10.2,-8.6,10.2,-8.6
Q 10.3,-8.7,10.3,-8.7
Q 10.3,-8.9,10.3,-9.0
Q 10.3,-9.1,10.3,-9.2
Q 10.2,-9.3,10.1,-9.4
Q 9.7,-12.2,6.5,-12.4
Q 3.4,-12.6,1.9,-10.7
Q 1.4,-8.9,1.7,-7.6
Q 2.0,-6.5,3.2,-5.6
Q 3.2,-5.6,3.9,-5.3
Q 4.7,-5.0,4.7,-5.0
Q 3.7,-4.7,2.7,-4.4
Q 2.5,-4.4,1.9,-4.0
Q 0.6,-4.1,-0.1,-4.1
Q -1.0,-4.0,-2.2,-3.9
Q -2.8,-5.1,-3.1,-5.7
Q -3.9,-6.7,-5.0,-7.9
Q -6.1,-8.6,-6.5,-9.0
Q -7.0,-9.4,-8.2,-10.1
Q -8.9,-11.0,-9.2,-11.3
Q -9.9,-12.1,-10.8,-12.8
Q -12.3,-16.0,-13.4,-18.2
Q -13.9,-19.2,-14.6,-20.6
Q -15.3,-21.9,-16.2,-23.5
Q -16.6,-24.2,-16.6,-24.2
Q -16.8,-24.3,-17.0,-24.3
Q -17.2,-24.3,-17.4,-24.1
Q -20.6,-30.8,-22.2,-30.3
Q -23.9,-29.7,-19.7,-23.1
Q -23.6,-28.7,-24.0,-25.8
Q -24.2,-24.3,-18.8,-16.5
Q -22.8,-21.5,-23.4,-19.8
Q -23.8,-18.5,-19.7,-14.2
Q -22.0,-15.7,-22.8,-14.8
Q -23.5,-14.0,-20.4,-11.6
Q -22.0,-11.7,-21.2,-10.3
Q -21.1,-10.0,-18.1,-8.5
Q -21.0,-9.1,-20.5,-7.7
Q -20.3,-7.2,-17.7,-6.5
Q -18.9,-5.9,-18.3,-5.2
Q -17.8,-4.7,-15.7,-4.1
Q -16.4,-3.8,-16.0,-2.9
Q -15.8,-2.5,-14.9,-2.6
Q -15.1,-2.3,-15.3,-2.1
Q -15.4,-1.8,-15.3,-1.6
Q -15.3,-1.6,-15.0,-1.5
Q -14.9,-1.5,-14.7,-1.3
Q -14.9,-0.7,-14.1,-0.4
Q -14.0,-0.4,-13.3,-0.4
Q -13.5,0.3,-13.1,0.6
Q -12.8,0.8,-11.8,0.7
Q -12.1,0.9,-12.1,0.9
Q -12.3,1.0,-12.4,1.0
Q -12.4,1.2,-12.3,1.3
Q -12.3,1.5,-12.1,1.6
Q -12.3,2.2,-12.0,2.3
Q -11.8,2.5,-11.3,2.5
Q -12.1,2.8,-11.9,3.4
Q -11.6,4.0,-10.6,3.9
Q -11.2,4.4,-11.0,4.6
Q -10.8,4.9,-9.6,5.0
Q -9.8,5.7,-9.5,5.9
Q -9.2,6.2,-8.6,6.2
Q -9.0,6.8,-8.7,7.1
Q -8.4,7.3,-7.5,7.0
Q -7.6,7.8,-7.4,8.0
Q -7.1,8.2,-6.4,8.1
Q -6.6,8.9,-6.3,9.0
Q -6.2,9.0,-5.6,8.8
Q -5.6,8.8,-5.4,9.1
Q -5.3,9.3,-5.3,9.3
Q -4.9,9.4,-4.5,9.3
Q -4.4,9.3,-4.1,9.1
Q -3.9,9.2,-3.7,9.2
Q -3.5,9.2,-3.3,9.2
Q -3.8,10.0,-4.0,11.1
Q -4.2,12.6,-4.2,14.0
Q -4.6,14.5,-4.6,14.6
Q -4.9,15.0,-4.8,15.5
Q -5.4,17.3,-5.6,18.3
Q -6.0,19.8,-6.3,21.7
Q -6.9,22.4,-7.0,23.1
Q -7.3,24.4,-6.7,25.0
Q -6.9,25.3,-7.0,25.5
Q -7.1,25.6,-7.1,25.7
Q -7.2,26.1,-7.2,26.4
Q -7.2,26.8,-7.2,27.1
Q -5.4,28.6,-3.2,28.1
Q -1.8,27.8,-1.8,26.5
Q -0.6,26.8,0.0,26.8
Q 1.0,26.9,2.3,26.7
Q 2.3,27.0,2.3,27.2
Q 2.3,27.4,2.3,27.4
Q 2.4,27.7,2.4,27.9
Q 2.5,28.2,2.5,28.4
Q 4.2,30.1,5.7,30.1
Q 8.1,30.1,9.0,29.0
Q 8.8,27.7,8.4,26.7
Q 8.3,26.5,8.2,25.1
Q 8.1,23.9,7.5,22.5
Q 7.3,22.0,6.8,19.6
Q 6.8,18.3,6.8,16.7
Q 6.8,16.4,6.7,15.0
Q 8.0,16.1,8.8,16.6
Q 9.9,17.3,11.4,18.1
Q 10.8,18.5,10.9,18.6
Q 11.1,19.3,11.3,20.7
Q 11.2,21.4,11.2,21.5
Q 11.2,22.4,11.5,23.0
Q 12.5,23.6,13.0,23.8
Q 14.1,24.1,15.4,24.4
Q 16.0,24.5,16.3,24.4
Q 16.7,24.4,17.6,24.1
Q 17.7,24.1,17.7,23.8
Q 17.7,23.6,17.7,23.3
Q 17.7,23.3,17.6,23.1
Q 17.6,23.0,17.5,22.7
Q 17.5,22.3,17.5,21.9
Q 17.4,21.5,17.4,21.0
Q 17.4,20.8,17.5,20.0
Q 17.5,19.4,17.4,18.6
Q 17.4,18.6,17.4,18.4
Q 17.3,18.2,17.2,17.9
Q 16.7,17.4,16.3,16.7
Q 16.2,16.5,16.0,15.9
Q 15.6,15.2,15.0,14.6
Q 14.8,14.5,14.0,14.2
Q 12.8,13.9,11.7,13.4
Q 11.2,13.2,10.1,12.6
Q 10.1,12.6,10.4,12.1
Q 10.6,11.7,10.7,11.7
Q 11.1,11.1,11.3,10.7
Q 11.5,10.3,11.5,9.6
Q 11.8,9.0,11.9,8.6
Q 12.0,8.2,12.0,7.6
Q 12.2,6.1,12.4,5.0
Q 12.6,4.0,12.7,2.5
Q 12.7,2.5,15.0,0.8
Q 17.4,-1.0,17.4,-1.0
Q 17.4,-1.0,18.8,-1.7
Q 20.9,-2.9,20.9,-2.9
Q 20.9,-2.9,22.3,-3.7
Q 24.5,-4.9,24.5,-5.0
Z " /> 
<path  
style="stroke:rgb(255,255,255);stroke-width:0.5;stroke-linecap:butt;stroke-linejoin:miter;stroke-miterlimit:4.0;stroke-opacity:1.0"  
d="M 24.5 -5.0
Q 24.5,-4.9,22.3,-3.7
Q 20.9,-2.9,20.9,-2.9
Q 20.9,-2.9,18.8,-1.7
Q 17.4,-1.0,17.4,-1.0
Q 17.4,-1.0,15.0,0.8
Q 12.7,2.5,12.7,2.5
Q 12.6,4.0,12.4,5.0
Q 12.2,6.1,12.0,7.6
Q 12.0,8.2,11.9,8.6
Q 11.8,9.0,11.5,9.6
Q 11.5,10.3,11.3,10.7
Q 11.1,11.1,10.7,11.7
Q 10.6,11.7,10.4,12.1
Q 10.1,12.6,10.1,12.6
Q 11.2,13.2,11.7,13.4
Q 12.8,13.9,14.0,14.2
Q 14.8,14.5,15.0,14.6
Q 15.6,15.2,16.0,15.9
Q 16.2,16.5,16.3,16.7
Q 16.7,17.4,17.2,17.9
Q 17.3,18.2,17.4,18.4
Q 17.4,18.6,17.4,18.6
Q 17.5,19.4,17.5,20.0
Q 17.4,20.8,17.4,21.0
Q 17.4,21.5,17.5,21.9
Q 17.5,22.3,17.5,22.7
Q 17.6,23.0,17.6,23.1
Q 17.7,23.3,17.7,23.3
Q 17.7,23.6,17.7,23.8
Q 17.7,24.1,17.6,24.1
Q 16.7,24.4,16.3,24.4
Q 16.0,24.5,15.4,24.4
Q 14.1,24.1,13.0,23.8
Q 12.5,23.6,11.5,23.0
Q 11.2,22.4,11.2,21.5
Q 11.2,21.4,11.3,20.7
Q 11.1,19.3,10.9,18.6
Q 10.8,18.5,11.4,18.1
Q 9.9,17.3,8.8,16.6
Q 8.0,16.1,6.7,15.0
Q 6.8,16.4,6.8,16.7
Q 6.8,18.3,6.8,19.6
Q 7.3,22.0,7.5,22.5
Q 8.1,23.9,8.2,25.1
Q 8.3,26.5,8.4,26.7
Q 8.8,27.7,9.0,29.0
Q 8.1,30.1,5.7,30.1
Q 4.2,30.1,2.5,28.4
Q 2.5,28.2,2.4,27.9
Q 2.4,27.7,2.3,27.4
Q 2.3,27.4,2.3,27.2
Q 2.3,27.0,2.3,26.7
Q 1.0,26.9,0.0,26.8
Q -0.6,26.8,-1.8,26.5
Q -1.8,27.8,-3.2,28.1
Q -5.4,28.6,-7.2,27.1
Q -7.2,26.8,-7.2,26.4
Q -7.2,26.1,-7.1,25.7
Q -7.1,25.6,-7.0,25.5
Q -6.9,25.3,-6.7,25.0
Q -7.3,24.4,-7.0,23.1
Q -6.9,22.4,-6.3,21.7
Q -6.0,19.8,-5.6,18.3
Q -5.4,17.3,-4.8,15.5
Q -4.9,15.0,-4.6,14.6
Q -4.6,14.5,-4.2,14.0
Q -4.2,12.6,-4.0,11.1
Q -3.8,10.0,-3.3,9.2
Q -3.5,9.2,-3.7,9.2
Q -3.9,9.2,-4.1,9.1
Q -4.4,9.3,-4.5,9.3
Q -4.9,9.4,-5.3,9.3
Q -5.3,9.3,-5.4,9.1
Q -5.6,8.8,-5.6,8.8
Q -6.2,9.0,-6.3,9.0
Q -6.6,8.9,-6.4,8.1
Q -7.1,8.2,-7.4,8.0
Q -7.6,7.8,-7.5,7.0
Q -8.4,7.3,-8.7,7.1
Q -9.0,6.8,-8.6,6.2
Q -9.2,6.2,-9.5,5.9
Q -9.8,5.7,-9.6,5.0
Q -10.8,4.9,-11.0,4.6
Q -11.2,4.4,-10.6,3.9
Q -11.6,4.0,-11.9,3.4
Q -12.1,2.8,-11.3,2.5
Q -11.8,2.5,-12.0,2.3
Q -12.3,2.2,-12.1,1.6
Q -12.3,1.5,-12.3,1.3
Q -12.4,1.2,-12.4,1.0
Q -12.3,1.0,-12.1,0.9
Q -12.1,0.9,-11.8,0.7
Q -12.8,0.8,-13.1,0.6
Q -13.5,0.3,-13.3,-0.4
Q -14.0,-0.4,-14.1,-0.4
Q -14.9,-0.7,-14.7,-1.3
Q -14.9,-1.5,-15.0,-1.5
Q -15.3,-1.6,-15.3,-1.6
Q -15.4,-1.8,-15.3,-2.1
Q -15.1,-2.3,-14.9,-2.6
Q -15.8,-2.5,-16.0,-2.9
Q -16.4,-3.8,-15.7,-4.1
Q -17.8,-4.7,-18.3,-5.2
Q -18.9,-5.9,-17.7,-6.5
Q -20.3,-7.2,-20.5,-7.7
Q -21.0,-9.1,-18.1,-8.5
Q -21.1,-10.0,-21.2,-10.3
Q -22.0,-11.7,-20.4,-11.6
Q -23.5,-14.0,-22.8,-14.8
Q -22.0,-15.7,-19.7,-14.2
Q -23.8,-18.5,-23.4,-19.8
Q -22.8,-21.5,-18.8,-16.5
Q -24.2,-24.3,-24.0,-25.8
Q -23.6,-28.7,-19.7,-23.1
Q -23.9,-29.7,-22.2,-30.3
Q -20.6,-30.8,-17.4,-24.1
Q -17.2,-24.3,-17.0,-24.3
Q -16.8,-24.3,-16.6,-24.2
Q -16.6,-24.2,-16.2,-23.5
Q -15.3,-21.9,-14.6,-20.6
Q -13.9,-19.2,-13.4,-18.2
Q -12.3,-16.0,-10.8,-12.8
Q -9.9,-12.1,-9.2,-11.3
Q -8.9,-11.0,-8.2,-10.1
Q -7.0,-9.4,-6.5,-9.0
Q -6.1,-8.6,-5.0,-7.9
Q -3.9,-6.7,-3.1,-5.7
Q -2.8,-5.1,-2.2,-3.9
Q -1.0,-4.0,-0.1,-4.1
Q 0.6,-4.1,1.9,-4.0
Q 2.5,-4.4,2.7,-4.4
Q 3.7,-4.7,4.7,-5.0
Q 4.7,-5.0,3.9,-5.3
Q 3.2,-5.6,3.2,-5.6
Q 2.0,-6.5,1.7,-7.6
Q 1.4,-8.9,1.9,-10.7
Q 3.4,-12.6,6.5,-12.4
Q 9.7,-12.2,10.1,-9.4
Q 10.2,-9.3,10.3,-9.2
Q 10.3,-9.1,10.3,-9.0
Q 10.3,-8.9,10.3,-8.7
Q 10.3,-8.7,10.2,-8.6
Q 10.2,-8.6,10.2,-8.4
Q 10.1,-8.3,10.1,-8.2
Q 10.1,-8.2,10.1,-8.0
Q 10.1,-8.0,10.1,-8.0
Q 10.9,-7.5,10.9,-7.4
Q 10.9,-7.3,10.7,-6.8
Q 10.8,-6.6,10.9,-6.3
Q 10.9,-6.1,10.8,-5.7
Q 10.8,-5.7,10.8,-5.6
Q 10.8,-5.5,10.7,-5.3
Q 10.7,-4.8,9.3,-4.6
Q 8.8,-4.5,7.6,-4.5
Q 7.7,-3.8,7.9,-3.7
Q 8.1,-3.6,8.8,-3.4
Q 9.0,-3.5,9.0,-3.5
Q 9.1,-3.5,9.2,-3.5
Q 9.3,-3.5,9.3,-3.5
Q 9.5,-3.6,9.5,-3.6
Q 9.8,-3.6,10.1,-3.6
Q 10.4,-3.6,10.7,-3.6
Q 11.9,-4.3,12.3,-4.6
Q 13.3,-5.2,14.5,-5.7
Q 15.6,-7.0,16.2,-7.5
Q 17.3,-8.6,18.7,-9.8
Q 18.6,-10.3,18.6,-10.6
Q 18.7,-11.0,18.8,-11.6
Q 19.0,-11.8,19.0,-11.9
Q 19.1,-12.0,19.1,-12.0
Q 19.5,-12.0,19.7,-12.0
Q 20.1,-12.1,20.3,-12.1
Q 20.4,-12.1,20.8,-11.7
Q 21.2,-11.3,21.2,-11.3
Q 21.2,-11.2,21.5,-10.8
Q 21.7,-10.5,21.7,-10.4
Q 21.9,-10.2,21.9,-10.0
Q 21.9,-9.7,21.8,-9.5
Q 21.8,-9.5,21.6,-9.3
Q 21.5,-9.2,21.1,-9.0
Q 21.1,-9.0,20.1,-8.6
Q 19.9,-8.5,19.9,-8.5
Q 18.3,-6.0,16.4,-4.3
Q 15.2,-3.2,12.4,-1.4
Q 12.4,-1.4,12.1,-0.8
Q 11.9,-0.5,11.9,-0.5
Q 11.9,-0.5,12.0,-0.2
Q 12.1,0.1,12.1,0.2
Q 12.1,0.2,14.5,-1.1
Q 17.7,-2.8,17.7,-2.8
Q 18.5,-3.4,18.9,-3.6
Q 19.9,-4.0,20.8,-4.3
Q 21.9,-4.6,22.8,-4.8
Q 24.4,-5.2,24.5,-5.0
Z " /> 
</g> 
</svg> 
