<?xml version="1.0" encoding="UTF-8"?>
<!DOCTYPE svg  PUBLIC '-//W3C//DTD SVG 1.1//EN'  'http://www.w3.org/Graphics/SVG/1.1/DTD/svg11.dtd'>
<svg version="1.1" xmlns="http://www.w3.org/2000/svg">
 <g transform="translate(24.2,30.5)" fill="none" stroke-width="0">
  <path d="m24.5-5q-0.1-0.2-1.7 0.2-0.9 0.2-2 0.5-0.9 0.3-1.9 0.7-0.4 0.2-1.2 0.8 0 0-3.2 1.7-2.4 1.3-2.4 1.3 0-0.1-0.1-0.4t-0.1-0.3 0.2-0.3q0.3-0.6 0.3-0.6 2.8-1.8 4-2.9 1.9-1.7 3.5-4.2 0 0 0.2-0.1 1-0.4 1-0.4 0.4-0.2 0.5-0.3 0.2-0.2 0.2-0.2 0.1-0.2 0.1-0.5 0-0.2-0.2-0.4 0-0.1-0.2-0.4-0.3-0.4-0.3-0.5 0 0-0.4-0.4t-0.5-0.4q-0.2 0-0.6 0.1-0.2 0-0.6 0 0 0-0.1 0.1 0 0.1-0.2 0.3-0.1 0.6-0.2 1 0 0.3 0.1 0.8-1.4 1.2-2.5 2.3-0.6 0.5-1.7 1.8-1.2 0.5-2.2 1.1-0.4 0.3-1.6 1-0.3 0-0.6 0t-0.6 0q0 0-0.2 0.1 0 0-0.1 0t-0.2 0q0 0-0.2 0.1-0.7-0.2-0.9-0.3t-0.3-0.8q1.2 0 1.7-0.1 1.4-0.2 1.4-0.7 0.1-0.2 0.1-0.3t0-0.1q0.1-0.4 0.1-0.6-0.1-0.3-0.2-0.5 0.2-0.5 0.2-0.6t-0.8-0.6q0-0.2 0-0.2 0-0.1 0.1-0.2 0-0.2 0-0.2 0.1-0.1 0.1-0.1 0-0.2 0-0.3t0-0.2q-0.1-0.1-0.2-0.2-0.4-2.8-3.6-3-3.1-0.2-4.6 1.7-0.5 1.8-0.2 3.1 0.3 1.1 1.5 2 0 0 0.7 0.3 0.8 0.3 0.8 0.3-1 0.3-2 0.6-0.2 0-0.8 0.4-1.3-0.1-2-0.1-0.9 0.1-2.1 0.2-0.6-1.2-0.9-1.8-0.8-1-1.9-2.2-1.1-0.7-1.5-1.1-0.5-0.4-1.7-1.1-0.7-0.9-1-1.2-0.7-0.8-1.6-1.5-1.5-3.2-2.6-5.4-0.5-1-1.2-2.4-0.7-1.3-1.6-2.9-0.4-0.7-0.4-0.7-0.2-0.1-0.4-0.1t-0.4 0.2q-3.2-6.7-4.8-6.2-1.7 0.6 2.5 7.2-3.9-5.6-4.3-2.7-0.2 1.5 5.2 9.3-4-5-4.6-3.3-0.4 1.3 3.7 5.6-2.3-1.5-3.1-0.6-0.7 0.8 2.4 3.2-1.6-0.1-0.8 1.3 0.1 0.3 3.1 1.8-2.9-0.6-2.4 0.8 0.2 0.5 2.8 1.2-1.2 0.6-0.6 1.3 0.5 0.5 2.6 1.1-0.7 0.3-0.3 1.2 0.2 0.4 1.1 0.3-0.2 0.3-0.4 0.5-0.1 0.3 0 0.5 0 0 0.3 0.1 0.1 0 0.3 0.2-0.2 0.6 0.6 0.9 0.1 0 0.8 0-0.2 0.7 0.2 1 0.3 0.2 1.3 0.1-0.3 0.2-0.3 0.2-0.2 0.1-0.3 0.1 0 0.2 0.1 0.3 0 0.2 0.2 0.3-0.2 0.6 0.1 0.7 0.2 0.2 0.7 0.2-0.8 0.3-0.6 0.9 0.3 0.6 1.3 0.5-0.6 0.5-0.4 0.7 0.2 0.3 1.4 0.4-0.2 0.7 0.1 0.9 0.3 0.3 0.9 0.3-0.4 0.6-0.1 0.9 0.3 0.2 1.2-0.1-0.1 0.8 0.1 1 0.3 0.2 1 0.1-0.2 0.8 0.1 0.9 0.1 0 0.7-0.2 0 0 0.2 0.3 0.1 0.2 0.1 0.2 0.4 0.1 0.8 0 0.1 0 0.4-0.2 0.2 0.1 0.4 0.1t0.4 0q-0.5 0.8-0.7 1.9-0.2 1.5-0.2 2.9-0.4 0.5-0.4 0.6-0.3 0.4-0.2 0.9-0.6 1.8-0.8 2.8-0.4 1.5-0.7 3.4-0.6 0.7-0.7 1.4-0.3 1.3 0.3 1.9-0.2 0.3-0.3 0.5-0.1 0.1-0.1 0.2-0.1 0.4-0.1 0.7 0 0.4 0 0.7 1.8 1.5 4 1 1.4-0.3 1.4-1.6 1.2 0.3 1.8 0.3 1 0.1 2.3-0.1 0 0.3 0 0.5t0 0.2q0.1 0.3 0.1 0.5 0.1 0.3 0.1 0.5 1.7 1.7 3.2 1.7 2.4 0 3.3-1.1-0.2-1.3-0.6-2.3-0.1-0.2-0.2-1.6-0.1-1.2-0.7-2.6-0.2-0.5-0.7-2.9 0-1.3 0-2.9 0-0.3-0.1-1.7 1.3 1.1 2.1 1.6 1.1 0.7 2.6 1.5-0.6 0.4-0.5 0.5 0.2 0.7 0.4 2.1-0.1 0.7-0.1 0.8 0 0.9 0.3 1.5 1 0.6 1.5 0.8 1.1 0.3 2.4 0.6 0.6 0.1 0.9 0 0.4 0 1.3-0.3 0.1 0 0.1-0.3 0-0.2 0-0.5 0 0-0.1-0.2 0-0.1-0.1-0.4 0-0.4 0-0.8-0.1-0.4-0.1-0.9 0-0.2 0.1-1 0-0.6-0.1-1.4 0 0 0-0.2-0.1-0.2-0.2-0.5-0.5-0.5-0.9-1.2-0.1-0.2-0.3-0.8-0.4-0.7-1-1.3-0.2-0.1-1-0.4-1.2-0.3-2.3-0.8-0.5-0.2-1.6-0.8 0 0 0.3-0.5 0.2-0.4 0.3-0.4 0.4-0.6 0.6-1t0.2-1.1q0.3-0.6 0.4-1t0.1-1q0.2-1.5 0.4-2.6 0.2-1 0.3-2.5 0 0 2.3-1.7 2.4-1.8 2.4-1.8t1.4-0.7q2.1-1.2 2.1-1.2t1.4-0.8q2.2-1.2 2.2-1.3z" fill="#000"/>
  <path d="m24.5-5q0 0.1-2.2 1.3-1.4 0.8-1.4 0.8t-2.1 1.2q-1.4 0.7-1.4 0.7t-2.4 1.8q-2.3 1.7-2.3 1.7-0.1 1.5-0.3 2.5-0.2 1.1-0.4 2.6 0 0.6-0.1 1t-0.4 1q0 0.7-0.2 1.1t-0.6 1q-0.1 0-0.3 0.4-0.3 0.5-0.3 0.5 1.1 0.6 1.6 0.8 1.1 0.5 2.3 0.8 0.8 0.3 1 0.4 0.6 0.6 1 1.3 0.2 0.6 0.3 0.8 0.4 0.7 0.9 1.2 0.1 0.3 0.2 0.5 0 0.2 0 0.2 0.1 0.8 0.1 1.4-0.1 0.8-0.1 1 0 0.5 0.1 0.9 0 0.4 0 0.8 0.1 0.3 0.1 0.4 0.1 0.2 0.1 0.2 0 0.3 0 0.5 0 0.3-0.1 0.3-0.9 0.3-1.3 0.3-0.3 0.1-0.9 0-1.3-0.3-2.4-0.6-0.5-0.2-1.5-0.8-0.3-0.6-0.3-1.5 0-0.1 0.1-0.8-0.2-1.4-0.4-2.1-0.1-0.1 0.5-0.5-1.5-0.8-2.6-1.5-0.8-0.5-2.1-1.6 0.1 1.4 0.1 1.7 0 1.6 0 2.9 0.5 2.4 0.7 2.9 0.6 1.4 0.7 2.6 0.1 1.4 0.2 1.6 0.4 1 0.6 2.3-0.9 1.1-3.3 1.1-1.5 0-3.2-1.7 0-0.2-0.1-0.5 0-0.2-0.1-0.5 0 0 0-0.2t0-0.5q-1.3 0.2-2.3 0.1-0.6 0-1.8-0.3 0 1.3-1.4 1.6-2.2 0.5-4-1 0-0.3 0-0.7 0-0.3 0.1-0.7 0-0.1 0.1-0.2 0.1-0.2 0.3-0.5-0.6-0.6-0.3-1.9 0.1-0.7 0.7-1.4 0.3-1.9 0.7-3.4 0.2-1 0.8-2.8-0.1-0.5 0.2-0.9 0-0.1 0.4-0.6 0-1.4 0.2-2.9 0.2-1.1 0.7-1.9-0.2 0-0.4 0t-0.4-0.1q-0.3 0.2-0.4 0.2-0.4 0.1-0.8 0 0 0-0.1-0.2-0.2-0.3-0.2-0.3-0.6 0.2-0.7 0.2-0.3-0.1-0.1-0.9-0.7 0.1-1-0.1-0.2-0.2-0.1-1-0.9 0.3-1.2 0.1-0.3-0.3 0.1-0.9-0.6 0-0.9-0.3-0.3-0.2-0.1-0.9-1.2-0.1-1.4-0.4-0.2-0.2 0.4-0.7-1 0.1-1.3-0.5-0.2-0.6 0.6-0.9-0.5 0-0.7-0.2-0.3-0.1-0.1-0.7-0.2-0.1-0.2-0.3-0.1-0.1-0.1-0.3 0.1 0 0.3-0.1 0 0 0.3-0.2-1 0.1-1.3-0.1-0.4-0.3-0.2-1-0.7 0-0.8 0-0.8-0.3-0.6-0.9-0.2-0.2-0.3-0.2-0.3-0.1-0.3-0.1-0.1-0.2 0-0.5 0.2-0.2 0.4-0.5-0.9 0.1-1.1-0.3-0.4-0.9 0.3-1.2-2.1-0.6-2.6-1.1-0.6-0.7 0.6-1.3-2.6-0.7-2.8-1.2-0.5-1.4 2.4-0.8-3-1.5-3.1-1.8-0.8-1.4 0.8-1.3-3.1-2.4-2.4-3.2 0.8-0.9 3.1 0.6-4.1-4.3-3.7-5.6 0.6-1.7 4.6 3.3-5.4-7.8-5.2-9.3 0.4-2.9 4.3 2.7-4.2-6.6-2.5-7.2 1.6-0.5 4.8 6.2 0.2-0.2 0.4-0.2t0.4 0.1q0 0 0.4 0.7 0.9 1.6 1.6 2.9 0.7 1.4 1.2 2.4 1.1 2.2 2.6 5.4 0.9 0.7 1.6 1.5 0.3 0.3 1 1.2 1.2 0.7 1.7 1.1 0.4 0.4 1.5 1.1 1.1 1.2 1.9 2.2 0.3 0.6 0.9 1.8 1.2-0.1 2.1-0.2 0.7 0 2 0.1 0.6-0.4 0.8-0.4 1-0.3 2-0.6 0 0-0.8-0.3-0.7-0.3-0.7-0.3-1.2-0.9-1.5-2-0.3-1.3 0.2-3.1 1.5-1.9 4.6-1.7 3.2 0.2 3.6 3 0.1 0.1 0.2 0.2 0 0.1 0 0.2t0 0.3q0 0-0.1 0.1 0 0 0 0.2-0.1 0.1-0.1 0.2 0 0 0 0.2 0.8 0.5 0.8 0.6t-0.2 0.6q0.1 0.2 0.2 0.5 0 0.2-0.1 0.6 0 0 0 0.1t-0.1 0.3q0 0.5-1.4 0.7-0.5 0.1-1.7 0.1 0.1 0.7 0.3 0.8t0.9 0.3q0.2-0.1 0.2-0.1 0.1 0 0.2 0t0.1 0q0.2-0.1 0.2-0.1 0.3 0 0.6 0t0.6 0q1.2-0.7 1.6-1 1-0.6 2.2-1.1 1.1-1.3 1.7-1.8 1.1-1.1 2.5-2.3-0.1-0.5-0.1-0.8 0.1-0.4 0.2-1 0.2-0.2 0.2-0.3 0.1-0.1 0.1-0.1 0.4 0 0.6 0 0.4-0.1 0.6-0.1 0.1 0 0.5 0.4t0.4 0.4q0 0.1 0.3 0.5 0.2 0.3 0.2 0.4 0.2 0.2 0.2 0.4 0 0.3-0.1 0.5 0 0-0.2 0.2-0.1 0.1-0.5 0.3 0 0-1 0.4-0.2 0.1-0.2 0.1-1.6 2.5-3.5 4.2-1.2 1.1-4 2.9 0 0-0.3 0.6-0.2 0.3-0.2 0.3t0.1 0.3 0.1 0.4q0 0 2.4-1.3 3.2-1.7 3.2-1.7 0.8-0.6 1.2-0.8 1-0.4 1.9-0.7 1.1-0.3 2-0.5 1.6-0.4 1.7-0.2z" stroke="#fff" stroke-width=".5"/>
 </g>
</svg>
