<?xml version="1.0" encoding="UTF-8"?>
<svg width="101.37mm" height="52.188mm" version="1.1" viewBox="0 0 101.37 52.188" xml:space="preserve" xmlns="http://www.w3.org/2000/svg"><g transform="translate(-56.05 -89.414)"><g fill="none" stroke-width="0"><g transform="matrix(.26458 0 0 .26458 106.97 105.45)"><path d="m-171.1 44.2q-0.2 0-1.6 1.8-1.4 1.7-3.5 5.1-2.1 3.3-4.3 7.9-2.3 4.6-4.1 10.1-1.8 5.6-2.6 11.9-0.9 6.3-0.2 13t3.4 13.5q2.7 6.9 8.1 13.5 4.7 4.3 9.2 7.2t8.8 4.6q4.3 1.8 8.1 2.6 3.9 0.8 7.2 1 3.4 0.2 6.1-0.1 2.7-0.2 4.6-0.7 2-0.4 3-0.7t1.1-0.3q3.3-1.2 6.5-2.8 3.3-1.6 6.3-3.8 2.9-2.1 5.4-4.7t4.3-5.6q1.8-3.1 2.8-6.6 1-3.4 0.9-7.3t-1.5-8.1q-1.3-4.3-4.1-8.8 0.8 2.5 2.8 5 1.9 2.5 4.7 4.8 2.8 2.4 6.1 4.4 3.3 2.1 7 3.7 3.6 1.7 7.3 2.8 3.7 1.2 7.2 1.7 3.5 0.6 6.4 0.4 3-0.2 5.2-1.2 2.9-1 5.7-2.6 2.9-1.6 5.6-3.7t5.2-4.4q2.6-2.4 4.8-4.8t3.9-4.7q1.8-2.3 3.1-4.2 1.3-2 2-3.3 0.7-1.4 0.6-2 0 0 0.2 0.7t0.4 2q0.3 1.3 0.6 2.9 0.2 1.7 0.5 3.6 0.2 1.9 0.4 3.8 0.1 1.9 0 3.7 0 1.8-0.3 3.2-0.3 1.5-0.9 2.5 17 2.3 30.3 2.4 13.4 0.1 23.6-1.7t17.9-5.1q7.6-3.4 13.2-8t9.7-10.2q4-5.6 7.1-11.8t5.7-12.7q2.7-6.6 5.4-13.2 1-0.5 3.3-0.8 2.2-0.2 5.2-0.3 3 0 6.4 0.1t6.9 0.4q3.4 0.2 6.5 0.5 3.1 0.4 5.4 0.8t3.6 0.8q1.2 0.4 0.9 0.9 0.7 0.2 0.5 1.9t-1 4.5q-0.9 2.9-2.4 6.6-1.5 3.6-3.6 7.7-2 4-4.5 8.1-2.5 4.2-5.4 8t-6 6.9-6.5 5.3q0.8 2.4 4.7 2.4 3.8 0 9.9-2.2 6.1-2.3 13.7-6.3 7.5-4 15.8-9.6 8.2-5.5 16.3-12.1t15.4-13.9q7.2-7.4 12.7-15.2 5.5-7.7 8.5-15.6-6.9-8.8-15.5-17.3-8.5-8.4-18-16.1-9.5-7.8-19.2-14.6t-18.9-12.4-17.1-9.8q-8-4.2-14-6.7-6.1-2.5-9.4-3.2-3.4-0.6-3.3 1-0.7-0.4-0.5 0 0.1 0.3 1 1.3 0.9 0.9 2.4 2.4t3.5 3.4 4.3 4.2q2.4 2.2 5 4.8 2.7 2.6 5.4 5.3 2.8 2.8 5.6 5.7t5.5 5.8 5.1 5.8q2.5 2.9 4.7 5.7 2.1 2.8 3.8 5.4t2.8 4.9 1.6 4.2q0.4 1.9 0.1 3.5-0.4 1.4-1.7 2.5 0.1 0.4-1.5 0.7-1.6 0.4-4.3 0.6-2.8 0.1-6.2 0.2-3.5 0-7.2-0.1-3.7 0-7.2-0.3-3.5-0.2-6.3-0.5-2.9-0.4-4.6-0.8-1.8-0.5-1.9-1.1-6.1-9.4-13-16-6.9-6.7-14.3-11-7.4-4.4-15-6.9-7.7-2.4-15.4-3.4t-15.2-1q-7.5 0.1-14.6 0.8t-13.5 1.7q-6.4 0.9-11.9 1.6 0 0.1 0.2 1.6t0.4 4q0.3 2.6 0.7 5.7 0.4 3.2 0.8 6.6 0.4 3.3 0.8 6.5t0.7 5.7 0.5 4q0.2 1.6 0.2 1.6-0.9-2.2-2.2-4.7-1.4-2.3-3.2-4.8t-3.8-5q-2-2.4-4.2-4.8-2.2-2.3-4.3-4.4-2.2-2.2-4.3-4-2-1.8-3.8-3.1-1.8-1.4-3.2-2.2-8.8-3.4-17.9-3.7-9.2-0.2-17.9 2.6-8.8 2.8-16.6 8.7-7.8 5.8-13.8 14.5 1-2.9 1.3-6.4 0.2-3.4-0.3-7.1-0.5-3.8-1.8-7.5-1.3-3.8-3.4-7.4-2.2-3.7-5.3-6.9t-7.1-5.8q-4-2.7-9.1-4.4-5-1.8-11.1-2.5-6.7 0.5-12.3 2.3-5.6 1.7-10.1 5.1-4.4 3.3-7.6 8.5t-5 12.6q-1.1 6.4-1.2 12.1-0.1 5.8 0.6 11t2 9.8q1.3 4.7 3.1 8.8 1.7 4.2 3.7 7.9t4.1 7.1q2 3.3 4 6.4 2 3 3.7 5.7z" fill="#000"/><path d="m-171.1 44.2q-1.7-2.7-3.7-5.7-2-3.1-4-6.4-2.1-3.4-4.1-7.1t-3.7-7.9q-1.8-4.1-3.1-8.8-1.3-4.6-2-9.8t-0.6-11q0.1-5.7 1.2-12.1 1.8-7.4 5-12.6t7.6-8.5q4.5-3.4 10.1-5.1 5.6-1.8 12.3-2.3 6.1 0.7 11.1 2.5 5.1 1.7 9.1 4.4 4 2.6 7.1 5.8t5.3 6.9q2.1 3.6 3.4 7.4 1.3 3.7 1.8 7.5 0.5 3.7 0.3 7.1-0.3 3.5-1.3 6.4 6-8.7 13.8-14.5 7.8-5.9 16.6-8.7 8.7-2.8 17.9-2.6 9.1 0.3 17.9 3.7 1.4 0.8 3.2 2.2 1.8 1.3 3.8 3.1 2.1 1.8 4.3 4 2.1 2.1 4.3 4.4 2.2 2.4 4.2 4.8 2 2.5 3.8 5t3.2 4.8q1.3 2.5 2.2 4.7 0 0-0.2-1.6-0.2-1.5-0.5-4t-0.7-5.7-0.8-6.5q-0.4-3.4-0.8-6.6-0.4-3.1-0.7-5.7-0.2-2.5-0.4-4t-0.2-1.6q5.5-0.7 11.9-1.6 6.4-1 13.5-1.7t14.6-0.8q7.5 0 15.2 1t15.4 3.4q7.6 2.5 15 6.9 7.4 4.3 14.3 11 6.9 6.6 13 16 0.1 0.6 1.9 1.1 1.7 0.4 4.6 0.8 2.8 0.3 6.3 0.5 3.5 0.3 7.2 0.3 3.7 0.1 7.2 0.1 3.4-0.1 6.2-0.2 2.7-0.2 4.3-0.6 1.6-0.3 1.5-0.7 1.3-1.1 1.7-2.5 0.3-1.6-0.1-3.5-0.5-1.9-1.6-4.2t-2.8-4.9-3.8-5.4q-2.2-2.8-4.7-5.7-2.4-2.9-5.1-5.8t-5.5-5.8-5.6-5.7q-2.7-2.7-5.4-5.3-2.6-2.6-5-4.8-2.3-2.3-4.3-4.2t-3.5-3.4-2.4-2.4q-0.9-1-1-1.3-0.2-0.4 0.5 0-0.1-1.6 3.3-1 3.3 0.7 9.4 3.2 6 2.5 14 6.7 7.9 4.2 17.1 9.8t18.9 12.4 19.2 14.6q9.5 7.7 18 16.1 8.6 8.5 15.5 17.3-3 7.9-8.5 15.6-5.5 7.8-12.7 15.2-7.3 7.3-15.4 13.9t-16.3 12.1q-8.3 5.6-15.8 9.6-7.6 4-13.7 6.3-6.1 2.2-9.9 2.2-3.9 0-4.7-2.4 3.4-2.2 6.5-5.3t6-6.9 5.4-8q2.5-4.1 4.5-8.1 2.1-4.1 3.6-7.7 1.5-3.7 2.4-6.6 0.8-2.8 1-4.5t-0.5-1.9q0.3-0.5-0.9-0.9-1.3-0.4-3.6-0.8t-5.4-0.8q-3.1-0.3-6.5-0.5-3.5-0.3-6.9-0.4t-6.4-0.1q-3 0.1-5.2 0.3-2.3 0.3-3.3 0.8-2.7 6.6-5.4 13.2-2.6 6.5-5.7 12.7t-7.1 11.8q-4.1 5.6-9.7 10.2t-13.2 8q-7.7 3.3-17.9 5.1t-23.6 1.7q-13.3-0.1-30.3-2.4 0.6-1 0.9-2.5 0.3-1.4 0.3-3.2 0.1-1.8 0-3.7-0.2-1.9-0.4-3.8-0.3-1.9-0.5-3.6-0.3-1.6-0.6-2.9-0.2-1.3-0.4-2t-0.2-0.7q0.1 0.6-0.6 2-0.7 1.3-2 3.3-1.3 1.9-3.1 4.2-1.7 2.3-3.9 4.7t-4.8 4.8q-2.5 2.3-5.2 4.4t-5.6 3.7q-2.8 1.6-5.7 2.6-2.2 1-5.2 1.2-2.9 0.2-6.4-0.4-3.5-0.5-7.2-1.7-3.7-1.1-7.3-2.8-3.7-1.6-7-3.7-3.3-2-6.1-4.4-2.8-2.3-4.7-4.8-2-2.5-2.8-5 2.8 4.5 4.1 8.8 1.4 4.2 1.5 8.1t-0.9 7.3q-1 3.5-2.8 6.6-1.8 3-4.3 5.6t-5.4 4.7q-3 2.2-6.3 3.8-3.2 1.6-6.5 2.8-0.1 0-1.1 0.3t-3 0.7q-1.9 0.5-4.6 0.7-2.7 0.3-6.1 0.1-3.3-0.2-7.2-1-3.8-0.8-8.1-2.6-4.3-1.7-8.8-4.6t-9.2-7.2q-5.4-6.6-8.1-13.5-2.7-6.8-3.4-13.5t0.2-13q0.8-6.3 2.6-11.9 1.8-5.5 4.1-10.1 2.2-4.6 4.3-7.9 2.1-3.4 3.5-5.1 1.4-1.8 1.6-1.8z" stroke="#000" stroke-linecap="round" stroke-linejoin="round" stroke-width=".3"/></g><g transform="matrix(.26458 0 0 .26458 106.89 105.47)"><path d="m-26.5 60.7q0.3 0 0.6 0 0.1 0 0.1 0t0.7 0.9q0.6 1 1.3 2.6 0.6 1.7 1.1 3.8 0.6 2.1 1 4.4 0.2 1.2 0.4 2.3 0.2 1.2 0.3 2.4 0.3 2.4 0.5 4.5 0.1 2.2 0.1 3.9 19.6 2.9 34.9 1.1t26.8-8.4q11.4-6.6 19.4-18.3 8.1-11.7 13.2-28.7 0.1 0 2.5 0.1 2.3 0.1 6.4 0.3 4 0.2 9 0.4 5.1 0.3 10.4 0.5 5.4 0.3 10.4 0.5 5 0.3 9.1 0.5 4 0.2 6.4 0.3t2.4 0.1q3.3 0.3 4.4 2.3 1.2 2 0.7 5.2t-2.2 7.1q-1.8 3.9-4.3 8.1-2.4 4.1-5.2 8.1-2.8 3.9-5.4 7.2-2.6 3.2-4.6 5.3-1.9 2-2.8 2.5 2.4 0.6 6.5-1.3 4-2 9.2-5.9 5.1-3.9 10.7-9.2 5.7-5.2 11.3-11.1t10.6-11.8 8.9-11.1q3.8-5.3 6-9.2 2.1-4 2-6-19.6-18.8-34.1-31.3t-24.2-19.4q-9.8-7-15.1-9.3t-6.5-0.6q0.4-0.5 2.8 1.3t6.2 5.4q3.7 3.6 8.1 8.2 4.3 4.8 8.6 10.1 4.3 5.2 7.7 10.6 3.5 5.3 5.4 10 2 4.8 1.7 8.5-0.2 3.7-3.4 5.6 0 0.4-2.6 0.6-2.6 0.3-7 0.3-4.5 0-10-0.2-5.6-0.2-11.6-0.5-5.9-0.3-11.5-0.7-5.7-0.5-10.2-1-4.5-0.6-7.2-1.2-2.8-0.6-2.9-1.3-2.1-5.8-5.8-10.4-3.6-4.6-8.6-8.1-4.9-3.4-10.7-5.9-5.8-2.4-12.2-3.9-6.3-1.5-12.8-2.2t-12.8-0.6-12 0.8q-5.8 0.7-10.6 2-0.6 1.2-0.6 3.2 0.1 2 0.5 4.6 0.5 2.7 1 6 0.6 3.2 1 6.9t0.4 7.7q0 4.1-0.8 8.3-0.7 4.2-1.8 9-1.1 4.6-4 8.9-1.1 7.4-2.7 12.6-1.7 5.2-4.5 12.6z" fill="#b80000"/><path d="m-26.5 60.7q1.5-6.5 2.9-13 1.5-6.5 3-12.9-2.9-5.5-6.2-11-3.2-5.5-6.7-10.7-3.6-5.2-7.5-9.9-4-4.7-8.3-8.6t-9.1-6.7q-4.7-2.9-9.9-4.4t-10.9-1.5q-5.6 0.1-11.8 2-2.4 0.5-5.4 1.9-3 1.3-6.2 3.1-3.3 1.9-6.6 4.2-3.3 2.2-6.4 4.6t-5.2 4.5q-2.1 2-3.9 4.3-1.5 2.2-2.7 4.7-1.1 2.5-1.3 3.3-2.8 13.9-3.1 18.4-0.2 3.9 12.5 27 3.8 4.9 8.4 10.8 4 4.9 9.7 9t12.2 7q6.4 2.8 13.6 4.1 4.2-0.5 7.8-1.4 3.7-0.9 6.9-2.1t6.1-2.8q2.8-1.6 5.5-3.4 2.7-1.9 5.2-4.1 2.6-2.1 5.1-4.6 2.6-2.4 5.3-5.1 2.6-2.7 5.6-5.7 0.3-0.5 0.7-0.8 0.3-0.3 0.7-0.2z" fill="#f2ee00"/><path d="m-120.3 61.3q-13.6-24.9-13-30 0.6-5.2 3-18.1 0 0 0.1-1.4t0.3-3.8q0.1-2.4 0.1-5.6 0.1-3.2 0-6.7-0.1-3.6-0.4-7.3t-1-7.2q-0.6-3.5-1.7-6.4-1-3-2.6-5.1-1.9-2.2-4.9-3.9-3-1.8-6.7-3.1-3.6-1.3-7.7-1.8-4-0.5-8 0-4.1 0.4-7.8 2.1-3.7 1.6-6.7 4.7-3.1 3-5.1 7.6-2.1 4.7-2.8 11.1 0.4 5.1 1.7 9.8 1.3 4.8 3.2 9.1 2 4.4 4.2 8.4 2.3 3.9 4.6 7.5 2.4 3.5 4.5 6.5 2.2 3 3.9 5.5 1.8 2.4 2.8 4.3t1.1 3.1q-4.8 7.3-8 14-3.3 6.7-5.1 12.8t-2.4 11.5q-0.5 5.4 0 10.1t1.9 8.8 3.5 7.4q2.1 3.4 4.8 6t5.8 4.5 6.5 3.1q3.3 1.1 6.7 1.5t6.6 0q3.3-0.4 6.3-1.6t5.5-3.3q2.6-2 4.5-4.8 2-2.8 3.1-6.5t1.3-8.3q0.3-2.8 0.4-5.7 0.1-3 0-5.9-0.1-3-0.3-5.8-0.2-2.9-0.5-5.4t-0.6-4.7q-0.3-2.1-0.6-3.7-0.2-1.6-0.3-1.9z" fill="#028700"/><path d="m-26.5 60.7q-0.4-0.1-0.7 0.2-0.4 0.3-0.7 0.8-3 3-5.6 5.7-2.7 2.7-5.3 5.1-2.5 2.5-5.1 4.6-2.5 2.2-5.2 4.1-2.7 1.8-5.5 3.4-2.9 1.6-6.1 2.8t-6.9 2.1q-3.6 0.9-7.8 1.4-7.2-1.3-13.6-4.1-6.5-2.9-12.2-7t-9.7-9q-4.6-5.9-8.4-10.8-12.7-23.1-12.5-27 0.3-4.5 3.1-18.4 0.2-0.8 1.3-3.3 1.2-2.5 2.7-4.7 1.8-2.3 3.9-4.3 2.1-2.1 5.2-4.5t6.4-4.6q3.3-2.3 6.6-4.2 3.2-1.8 6.2-3.1 3-1.4 5.4-1.9 6.2-1.9 11.8-2 5.7 0 10.9 1.5t9.9 4.4q4.8 2.8 9.1 6.7t8.3 8.6q3.9 4.7 7.5 9.9 3.5 5.2 6.7 10.7 3.3 5.5 6.2 11-1.5 6.4-3 12.9-1.4 6.5-2.9 13z" stroke="#000" stroke-linecap="round" stroke-linejoin="round" stroke-width=".3"/><path d="m-26.5 60.7q0.3 0 0.6 0 0.1 0 0.1 0t0.7 0.9q0.6 1 1.3 2.6 0.6 1.7 1.1 3.8 0.6 2.1 1 4.4 0.2 1.2 0.4 2.3 0.2 1.2 0.3 2.4 0.3 2.4 0.5 4.5 0.1 2.2 0.1 3.9 19.6 2.9 34.9 1.1t26.8-8.4q11.4-6.6 19.4-18.3 8.1-11.7 13.2-28.7 0.1 0 2.5 0.1 2.3 0.1 6.4 0.3 4 0.2 9 0.4 5.1 0.3 10.4 0.5 5.4 0.3 10.4 0.5 5 0.3 9.1 0.5 4 0.2 6.4 0.3t2.4 0.1q3.3 0.3 4.4 2.3 1.2 2 0.7 5.2t-2.2 7.1q-1.8 3.9-4.3 8.1-2.4 4.1-5.2 8.1-2.8 3.9-5.4 7.2-2.6 3.2-4.6 5.3-1.9 2-2.8 2.5 2.4 0.6 6.5-1.3 4-2 9.2-5.9 5.1-3.9 10.7-9.2 5.7-5.2 11.3-11.1t10.6-11.8 8.9-11.1q3.8-5.3 6-9.2 2.1-4 2-6-19.6-18.8-34.1-31.3t-24.2-19.4q-9.8-7-15.1-9.3t-6.5-0.6q0.4-0.5 2.8 1.3t6.2 5.4q3.7 3.6 8.1 8.2 4.3 4.8 8.6 10.1 4.3 5.2 7.7 10.6 3.5 5.3 5.4 10 2 4.8 1.7 8.5-0.2 3.7-3.4 5.6 0 0.4-2.6 0.6-2.6 0.3-7 0.3-4.5 0-10-0.2-5.6-0.2-11.6-0.5-5.9-0.3-11.5-0.7-5.7-0.5-10.2-1-4.5-0.6-7.2-1.2-2.8-0.6-2.9-1.3-2.1-5.8-5.8-10.4-3.6-4.6-8.6-8.1-4.9-3.4-10.7-5.9-5.8-2.4-12.2-3.9-6.3-1.5-12.8-2.2t-12.8-0.6-12 0.8q-5.8 0.7-10.6 2-0.6 1.2-0.6 3.2 0.1 2 0.5 4.6 0.5 2.7 1 6 0.6 3.2 1 6.9t0.4 7.7q0 4.1-0.8 8.3-0.7 4.2-1.8 9-1.1 4.6-4 8.9-1.1 7.4-2.7 12.6-1.7 5.2-4.5 12.6z" stroke="#000" stroke-linecap="round" stroke-linejoin="round" stroke-width=".3"/><path d="m-120.3 61.3t0.2 1.4q0.1 0.3 0.3 1.9 0.3 1.6 0.6 3.7 0.3 2.2 0.6 4.7t0.5 5.4q0.2 2.8 0.3 5.8 0.1 2.9 0 5.9-0.1 2.9-0.4 5.7-0.2 4.6-1.3 8.3t-3.1 6.5q-1.9 2.8-4.5 4.8-2.5 2.1-5.5 3.3t-6.3 1.6q-3.2 0.4-6.6 0t-6.7-1.5q-3.4-1.2-6.5-3.1t-5.8-4.5-4.8-6q-2.1-3.3-3.5-7.4t-1.9-8.8 0-10.1q0.6-5.4 2.4-11.5t5.1-12.8q3.2-6.7 8-14-0.1-1.2-1.1-3.1t-2.8-4.3q-1.7-2.5-3.9-5.5-2.1-3-4.5-6.5-2.3-3.6-4.6-7.5-2.2-4-4.2-8.4-1.9-4.3-3.2-9.1-1.3-4.7-1.7-9.8 0.7-6.4 2.8-11.1 2-4.6 5.1-7.6 3-3.1 6.7-4.7 3.7-1.7 7.8-2.1 4-0.5 8 0 4.1 0.5 7.7 1.8 3.7 1.3 6.7 3.1 3 1.7 4.9 3.9 1.6 2.1 2.6 5.1 1.1 2.9 1.7 6.4 0.7 3.5 1 7.2t0.4 7.3q0.1 3.5 0 6.7 0 3.2-0.1 5.6-0.2 2.4-0.3 3.8t-0.1 1.4q-2.4 12.9-3 18.1-0.6 5.1 13 30z" stroke="#000" stroke-linecap="round" stroke-linejoin="round" stroke-width=".3"/></g><g transform="matrix(.26458 0 0 .26458 106.89 106.52)"><path d="m4.4 4.6q0 0.1 0.1 1.9 0.2 1.9 0.4 5.1 0.2 3.1 0.4 7.1 0.3 3.9 0.6 8.1 0.2 4.2 0.5 8.2 0.3 3.9 0.5 7.1t0.3 5q0.1 1.9 0.1 1.9 3.6 1 7.3 1.4 3.6 0.3 7.1 0.1 3.5-0.3 6.8-1.2 3.2-1 6.1-2.5 2.8-1.6 5.2-3.8 2.3-2.2 4-5.1 1.7-2.8 2.7-6.3 0.9-3.6 0.9-7.7-0.4-4.6-1.9-8.1-1.4-3.5-3.7-6.1-2.4-2.5-5.3-4.2t-6.2-2.6-6.8-1.1q-3.5-0.3-6.9 0t-6.5 1q-3.1 0.8-5.7 1.8z" fill="#000"/><path d="m-146.4 64.4q-2.6 0.2-4.6 2.3-1.9 2-3 4.9t-1.2 5.8q-0.1 3 0.9 5.1 1 1.9 2.5 3.1 1.4 1.3 3.1 2 1.8 0.7 3.6 0.8 1.9 0.2 3.7-0.2 1.8-0.3 3.5-1.1 1.6-0.8 2.9-2t2.1-2.7q0.8-1.6 0.9-3.5 0.2-3.8-1-6.8-1.3-3-3.6-5-2.2-2-4.9-2.8-2.6-0.7-4.9 0.1z" fill="#000"/><path d="m-151.7-18q-3.2 0.4-5.5 2.3-2.2 1.8-3.2 4.5-1.1 2.8-0.7 5.9 0.5 3.1 2.6 6.2 1.6 1.6 4 2.5t4.9 0.7q2.6-0.1 4.6-1.6 2.1-1.5 3.1-4.7 0.6-3 0.4-5.7-0.1-2.7-1.3-4.9-1.1-2.1-3.3-3.5t-5.6-1.7z" fill="#000"/><path d="m-132.2 36.2q5.6 5.3 12.2 9.6 6.6 4.4 13.8 7.6 7.3 3.1 14.8 4.7 7.6 1.6 15.1 1.4 2.3-0.5 4.5-1.5 2.1-1.1 4.1-2.6 1.9-1.6 3.6-3.5t3.2-4.1q1.4-2.2 2.6-4.5 1.1-2.3 2-4.6 0.8-2.3 1.2-4.4 0.5-2.2 0.6-4.1 0.2-6.1-2.1-10.9t-6.2-8.2q-3.9-3.3-8.6-5.2t-9.4-2.1q-3.1-0.4-6.4 0.3-3.4 0.7-6.9 2.3-3.6 1.5-7.2 3.6-3.7 2.2-7.2 4.8-3.6 2.5-7 5.4-3.4 2.7-6.4 5.6-3.1 2.8-5.7 5.5-2.6 2.6-4.6 4.9z" fill="#000"/><path d="m4.4 4.6q0 0.1 0.1 1.9 0.2 1.9 0.4 5.1 0.2 3.1 0.4 7.1 0.3 3.9 0.6 8.1 0.2 4.2 0.5 8.2 0.3 3.9 0.5 7.1t0.3 5q0.1 1.9 0.1 1.9 3.6 1 7.3 1.4 3.6 0.3 7.1 0.1 3.5-0.3 6.8-1.2 3.2-1 6.1-2.5 2.8-1.6 5.2-3.8 2.3-2.2 4-5.1 1.7-2.8 2.7-6.3 0.9-3.6 0.9-7.7-0.4-4.6-1.9-8.1-1.4-3.5-3.7-6.1-2.4-2.5-5.3-4.2t-6.2-2.6-6.8-1.1q-3.5-0.3-6.9 0t-6.5 1q-3.1 0.8-5.7 1.8z" stroke="#000" stroke-linecap="round" stroke-linejoin="round" stroke-width=".3"/><path d="m-132.2 36.2q2-2.3 4.6-4.9 2.6-2.7 5.7-5.5 3-2.9 6.4-5.6 3.4-2.9 7-5.4 3.5-2.6 7.2-4.8 3.6-2.1 7.2-3.6 3.5-1.6 6.9-2.3 3.3-0.7 6.4-0.3 4.7 0.2 9.4 2.1t8.6 5.2q3.9 3.4 6.2 8.2t2.1 10.9q-0.1 1.9-0.6 4.1-0.4 2.1-1.2 4.4-0.9 2.3-2 4.6-1.2 2.3-2.6 4.5-1.5 2.2-3.2 4.1t-3.6 3.5q-2 1.5-4.1 2.6-2.2 1-4.5 1.5-7.5 0.2-15.1-1.4-7.5-1.6-14.8-4.7-7.2-3.2-13.8-7.6-6.6-4.3-12.2-9.6z" stroke="#000" stroke-linecap="round" stroke-linejoin="round" stroke-width=".3"/><path d="m-146.4 64.4q-2.6 0.2-4.6 2.3-1.9 2-3 4.9t-1.2 5.8q-0.1 3 0.9 5.1 1 1.9 2.5 3.1 1.4 1.3 3.1 2 1.8 0.7 3.6 0.8 1.9 0.2 3.7-0.2 1.8-0.3 3.5-1.1 1.6-0.8 2.9-2t2.1-2.7q0.8-1.6 0.9-3.5 0.2-3.8-1-6.8-1.3-3-3.6-5-2.2-2-4.9-2.8-2.6-0.7-4.9 0.1z" stroke="#000" stroke-linecap="round" stroke-linejoin="round" stroke-width=".3"/><path d="m-151.7-18q-3.2 0.4-5.5 2.3-2.2 1.8-3.2 4.5-1.1 2.8-0.7 5.9 0.5 3.1 2.6 6.2 1.6 1.6 4 2.5t4.9 0.7q2.6-0.1 4.6-1.6 2.1-1.5 3.1-4.7 0.6-3 0.4-5.7-0.1-2.7-1.3-4.9-1.1-2.1-3.3-3.5t-5.6-1.7z" stroke="#000" stroke-linecap="round" stroke-linejoin="round" stroke-width=".3"/></g><g transform="matrix(.26458 0 0 .26458 107.45 106.85)"><path d="m12.8 11t0 1.3q0.1 1.2 0.2 3.4 0 2.1 0.2 4.8 0.1 2.6 0.2 5.5 0.1 2.8 0.2 5.5t0.2 4.8 0.1 3.4q0.1 1.2 0.1 1.3 4.7 0.6 8.9 0.1 4.2-0.6 7.4-2.5 3.3-1.9 5.2-5.4 2-3.4 2.1-8.7-0.5-4.9-2.6-8.2t-5.5-5-7.6-1.8q-4.3-0.1-9.1 1.5z" fill="#fff"/><path d="m-147.7 70.3q-1 0.6-1.9 1.8-0.9 1.1-1.5 2.5t-0.6 2.8q0.1 1.5 0.9 2.8 1.2 2 3 2.6 1.7 0.6 3.6 0.2 1.9-0.5 3.2-1.6 1.4-1.2 1.8-2.7 0.4-1.8-0.2-3.6-0.6-1.7-1.9-3-1.2-1.3-2.9-1.8t-3.5 0z" fill="#fff"/><path d="m-154-12.6q-1.4 0.4-2.4 1.5t-1.5 2.6q-0.5 1.6-0.2 3.3t1.6 3.3q1.1 0.4 2.2 0.7 1.2 0.3 2.3 0.2 1.2-0.1 2.3-1 1-0.9 1.9-2.9 0.3-2.6-0.3-4.2-0.6-1.5-1.7-2.3-1.1-0.9-2.3-1.1-1.1-0.2-1.9-0.1z" fill="#fff"/><path d="m-123.7 35.6q1.4 1.5 3.4 2.9 2.1 1.4 4.5 2.6 2.5 1.2 5.2 2.2 2.8 1 5.6 1.8t5.5 1.4q2.7 0.5 5.1 0.9t4.4 0.5q1.9 0.2 3.3 0.1 4-0.8 7.1-2.6 3-1.8 5.1-4.3 2.1-2.6 3.2-5.5 1.1-2.8 1.2-5.8t-0.9-5.8q-0.9-2.7-2.9-4.9-2-2.3-5.1-3.7t-7.3-1.7q-1.7 0.1-3.8 0.8-2.2 0.7-4.8 1.9-2.5 1.1-5.3 2.6t-5.6 3.2-5.4 3.5q-2.7 1.8-5.1 3.6t-4.3 3.4-3.1 2.9z" fill="#fff"/><path d="m12.8 11t0 1.3q0.1 1.2 0.2 3.4 0 2.1 0.2 4.8 0.1 2.6 0.2 5.5 0.1 2.8 0.2 5.5t0.2 4.8 0.1 3.4q0.1 1.2 0.1 1.3 4.7 0.6 8.9 0.1 4.2-0.6 7.4-2.5 3.3-1.9 5.2-5.4 2-3.4 2.1-8.7-0.5-4.9-2.6-8.2t-5.5-5-7.6-1.8q-4.3-0.1-9.1 1.5z" stroke="#000" stroke-linecap="round" stroke-linejoin="round" stroke-width=".3"/><path d="m-123.7 35.6q1.2-1.3 3.1-2.9t4.3-3.4 5.1-3.6q2.6-1.8 5.4-3.5t5.6-3.2 5.3-2.6q2.6-1.2 4.8-1.9 2.1-0.7 3.8-0.8 4.2 0.3 7.3 1.7t5.1 3.7q2 2.2 2.9 4.9 1 2.8 0.9 5.8t-1.2 5.8q-1.1 2.9-3.2 5.5-2.1 2.5-5.1 4.3-3.1 1.8-7.1 2.6-1.4 0.1-3.3-0.1-2-0.1-4.4-0.5t-5.1-0.9q-2.7-0.6-5.5-1.4t-5.6-1.8q-2.7-1-5.2-2.2-2.4-1.2-4.5-2.6-2-1.4-3.4-2.9z" stroke="#000" stroke-linecap="round" stroke-linejoin="round" stroke-width=".3"/><path d="m-147.7 70.3q-1 0.6-1.9 1.8-0.9 1.1-1.5 2.5t-0.6 2.8q0.1 1.5 0.9 2.8 1.2 2 3 2.6 1.7 0.6 3.6 0.2 1.9-0.5 3.2-1.6 1.4-1.2 1.8-2.7 0.4-1.8-0.2-3.6-0.6-1.7-1.9-3-1.2-1.3-2.9-1.8t-3.5 0z" stroke="#000" stroke-linecap="round" stroke-linejoin="round" stroke-width=".3"/><path d="m-154-12.6q-1.4 0.4-2.4 1.5t-1.5 2.6q-0.5 1.6-0.2 3.3t1.6 3.3q1.1 0.4 2.2 0.7 1.2 0.3 2.3 0.2 1.2-0.1 2.3-1 1-0.9 1.9-2.9 0.3-2.6-0.3-4.2-0.6-1.5-1.7-2.3-1.1-0.9-2.3-1.1-1.1-0.2-1.9-0.1z" stroke="#000" stroke-linecap="round" stroke-linejoin="round" stroke-width=".3"/></g></g></g></svg>
