<?xml version="1.0" encoding="UTF-8"?>
<svg width="101.37mm" height="52.188mm" version="1.1" viewBox="-2.5 -2.5 106.37 57.188" xml:space="preserve" xmlns="http://www.w3.org/2000/svg">
 <style>

.icon { transform-origin: 35px 26px; animation: sweep 1.5s ease-in-out infinite alternate; }
    @keyframes sweep {
      from { transform: rotate(-5deg); }
      to   { transform: rotate(0deg); }
    }
  </style>



<g class="icon" transform="translate(.066555 -.57116)"><path transform="scale(.26458)" d="m43.281 197.79c-6.2544-1.2443-16.507-6.2018-22.033-10.654-7.4301-5.9858-11.961-13.506-14.726-24.44-2.0251-8.0081-1.5919-19.781 1.0559-28.694 2.0156-6.7846 7.317-17.783 11.135-23.101 1.3719-1.9109 2.4943-3.7385 2.4943-4.0614 0-0.32289-2.1043-3.9221-4.6762-7.9982-12.354-19.58-17.047-34.651-15.957-51.248 1.3204-20.101 10.359-32.183 27.013-36.109 8.5562-2.0171 15.63-0.98368 24.908 3.6389 9.5268 4.7464 17.353 14.452 20.112 24.943 0.97949 3.7239 1.2379 10.811 0.55447 15.208l-0.54033 3.4765 1.5232-2.0859c0.83773-1.1473 4.0533-4.6156 7.1457-7.7074 6.4954-6.4942 14.06-11.243 22.31-14.007 4.9864-1.6702 6.6065-1.8664 15.644-1.8947 16.159-0.05055 20.706 1.9557 33.031 14.573 5.8887 6.0284 14 16.839 14.686 19.574 0.6746 2.6878 1.8093 1.8778 1.3697-0.9778-1.2147-7.8907-3.9384-32.344-3.6362-32.646 0.71624-0.71624 24.698-3.6524 33.466-4.0974 27.325-1.3868 49.146 6.2021 65.904 22.92 3.1418 3.1343 7.2768 7.9489 9.1889 10.699 1.9121 2.7503 3.9082 5.1708 4.4358 5.379 2.5851 1.0199 16.016 1.8582 26.276 1.64 11.081-0.23569 11.523-0.30071 12.806-1.8856 5.2137-6.4398-4.7412-20.909-34.384-49.975-7.8919-7.7383-14.349-14.422-14.349-14.853 0-2.0925 11.187 2.0089 24.703 9.0571 31.781 16.572 66.092 42.73 84.521 64.438l5.0217 5.9149-2.9063 5.6974c-8.3403 16.35-27.172 35.145-51.32 51.218-18.004 11.984-34.52 18.87-40.137 16.734l-1.957-0.74404 3.3788-2.6911c1.8583-1.4801 4.6606-4.2126 6.2273-6.0722 12.137-14.407 23.668-40.691 18.532-42.245-5.4824-1.6588-29.953-3.2057-35.184-2.2242-2.9327 0.55018-2.2104-0.68962-9.153 15.709-7.1172 16.811-12.819 25.583-21.039 32.362-14.243 11.748-35.227 16.64-63.951 14.908-10.686-0.64435-15.183-1.0666-18.634-1.7498-1.299-0.25719-1.3994-0.6829-1.1361-4.8185 0.26037-4.0892-0.79545-14.338-1.7272-16.767-0.22583-0.5885-1.7201 1.117-3.8674 4.414-4.1552 6.38-13.903 16.346-19.437 19.873-2.1738 1.3854-5.6155 3.1812-7.6483 3.9908-11.852 4.72-36.61-4.8884-44.487-17.266-1.2747-2.0028-2.5523-3.6455-2.8391-3.6504-0.84937-0.0144-0.61536 0.75174 1.1494 3.7631 8.6859 14.821 2.4066 31.329-15.451 40.62-9.084 4.726-17.374 5.9083-27.418 3.9101zm9.856-48.016c1.7341-1.4591 2.1393-2.3283 2.1393-4.589 0-2.2447-0.46136-3.2503-2.364-5.153-3.5389-3.5389-7.6361-3.0794-9.7966 1.0986-3.827 7.4007 3.7409 13.928 10.021 8.6434zm58.176-34.44c15.168-5.6751 17.579-25.645 3.9034-32.336-1.6673-0.81572-4.174-1.2673-7.0972-1.2785-3.9992-0.01534-5.298 0.36332-11.281 3.2889-11.651 5.6969-27.807 17.353-26.649 19.226 2.3191 3.7524 17.039 9.7804 28.086 11.501 8.2304 1.2822 8.5637 1.2719 13.038-0.40211zm109.38-6.5674c10.018-2.975 14.363-15.219 8.67-24.433-3.6366-5.8857-11.426-8.4554-19.65-6.4825l-3.5578 0.85351 0.3463 6.7101c0.19047 3.6906 0.53439 10.699 0.76428 15.575l0.41798 8.8651h4.6709c2.569 0 6.3211-0.49005 8.338-1.089zm-176.92-41.756c0.61905-0.23755 1.611-1.3707 2.2043-2.518 2.7622-5.3415-2.4733-11.5-7.4925-8.8143-1.9262 1.0309-3.5545 5.1784-3.0087 7.6635 0.7276 3.3127 4.6754 5.0584 8.2969 3.6688zm16.371-0.9587c0-0.38242-0.46933-0.6953-1.043-0.6953-0.57363 0-1.043 0.31289-1.043 0.6953 0 0.38242 0.46933 0.6953 1.043 0.6953 0.57362 0 1.043-0.31289 1.043-0.6953z" fill="#17031f" stroke="#000" stroke-width=".6953"/><g transform="matrix(.26458 0 0 .26458 51.21 17.809)" fill="none" stroke-width="0"><path d="m-154-12.6q-1.4 0.4-2.4 1.5t-1.5 2.6q-0.5 1.6-0.2 3.3t1.6 3.3q1.1 0.4 2.2 0.7 1.2 0.3 2.3 0.2 1.2-0.1 2.3-1 1-0.9 1.9-2.9 0.3-2.6-0.3-4.2-0.6-1.5-1.7-2.3-1.1-0.9-2.3-1.1-1.1-0.2-1.9-0.1zm6.3 82.9q-1 0.6-1.9 1.8-0.9 1.1-1.5 2.5t-0.6 2.8q0.1 1.5 0.9 2.8 1.2 2 3 2.6 1.7 0.6 3.6 0.2 1.9-0.5 3.2-1.6 1.4-1.2 1.8-2.7 0.4-1.8-0.2-3.6-0.6-1.7-1.9-3-1.2-1.3-2.9-1.8t-3.5 0zm24-34.7q1.2-1.3 3.1-2.9t4.3-3.4 5.1-3.6q2.6-1.8 5.4-3.5t5.6-3.2 5.3-2.6q2.6-1.2 4.8-1.9 2.1-0.7 3.8-0.8 4.2 0.3 7.3 1.7t5.1 3.7q2 2.2 2.9 4.9 1 2.8 0.9 5.8t-1.2 5.8q-1.1 2.9-3.2 5.5-2.1 2.5-5.1 4.3-3.1 1.8-7.1 2.6-1.4 0.1-3.3-0.1-2-0.1-4.4-0.5t-5.1-0.9q-2.7-0.6-5.5-1.4t-5.6-1.8q-2.7-1-5.2-2.2-2.4-1.2-4.5-2.6-2-1.4-3.4-2.9zm136.5-24.6t0 1.3q0.1 1.2 0.2 3.4 0 2.1 0.2 4.8 0.1 2.6 0.2 5.5 0.1 2.8 0.2 5.5t0.2 4.8 0.1 3.4q0.1 1.2 0.1 1.3 4.7 0.6 8.9 0.1 4.2-0.6 7.4-2.5 3.3-1.9 5.2-5.4 2-3.4 2.1-8.7-0.5-4.9-2.6-8.2t-5.5-5-7.6-1.8q-4.3-0.1-9.1 1.5zm-136.5 24.6q1.4 1.5 3.4 2.9 2.1 1.4 4.5 2.6 2.5 1.2 5.2 2.2 2.8 1 5.6 1.8t5.5 1.4q2.7 0.5 5.1 0.9t4.4 0.5q1.9 0.2 3.3 0.1 4-0.8 7.1-2.6 3-1.8 5.1-4.3 2.1-2.6 3.2-5.5 1.1-2.8 1.2-5.8t-0.9-5.8q-0.9-2.7-2.9-4.9-2-2.3-5.1-3.7t-7.3-1.7q-1.7 0.1-3.8 0.8-2.2 0.7-4.8 1.9-2.5 1.1-5.3 2.6t-5.6 3.2-5.4 3.5q-2.7 1.8-5.1 3.6t-4.3 3.4-3.1 2.9zm-30.3-48.2q-1.4 0.4-2.4 1.5t-1.5 2.6q-0.5 1.6-0.2 3.3t1.6 3.3q1.1 0.4 2.2 0.7 1.2 0.3 2.3 0.2 1.2-0.1 2.3-1 1-0.9 1.9-2.9 0.3-2.6-0.3-4.2-0.6-1.5-1.7-2.3-1.1-0.9-2.3-1.1-1.1-0.2-1.9-0.1zm6.3 82.9q-1 0.6-1.9 1.8-0.9 1.1-1.5 2.5t-0.6 2.8q0.1 1.5 0.9 2.8 1.2 2 3 2.6 1.7 0.6 3.6 0.2 1.9-0.5 3.2-1.6 1.4-1.2 1.8-2.7 0.4-1.8-0.2-3.6-0.6-1.7-1.9-3-1.2-1.3-2.9-1.8t-3.5 0zm160.5-59.3t0 1.3q0.1 1.2 0.2 3.4 0 2.1 0.2 4.8 0.1 2.6 0.2 5.5 0.1 2.8 0.2 5.5t0.2 4.8 0.1 3.4q0.1 1.2 0.1 1.3 4.7 0.6 8.9 0.1 4.2-0.6 7.4-2.5 3.3-1.9 5.2-5.4 2-3.4 2.1-8.7-0.5-4.9-2.6-8.2t-5.5-5-7.6-1.8q-4.3-0.1-9.1 1.5zm-126.84 45.78t0.2 1.4q0.1 0.3 0.3 1.9 0.3 1.6 0.6 3.7 0.3 2.2 0.6 4.7t0.5 5.4q0.2 2.8 0.3 5.8 0.1 2.9 0 5.9-0.1 2.9-0.4 5.7-0.2 4.6-1.3 8.3-1.1 3.7-3.1 6.5-1.9 2.8-4.5 4.8-2.5 2.1-5.5 3.3t-6.3 1.6q-3.2 0.4-6.6 0t-6.7-1.5q-3.4-1.2-6.5-3.1t-5.8-4.5-4.8-6q-2.1-3.3-3.5-7.4t-1.9-8.8 0-10.1q0.6-5.4 2.4-11.5t5.1-12.8q3.2-6.7 8-14-0.1-1.2-1.1-3.1t-2.8-4.3q-1.7-2.5-3.9-5.5-2.1-3-4.5-6.5-2.3-3.6-4.6-7.5-2.2-4-4.2-8.4-1.9-4.3-3.2-9.1-1.3-4.7-1.7-9.8 0.7-6.4 2.8-11.1 2-4.6 5.1-7.6 3-3.1 6.7-4.7 3.7-1.7 7.8-2.1 4-0.5 8 0 4.1 0.5 7.7 1.8 3.7 1.3 6.7 3.1 3 1.7 4.9 3.9 1.6 2.1 2.6 5.1 1.1 2.9 1.7 6.4 0.7 3.5 1 7.2t0.4 7.3q0.1 3.5 0 6.7 0 3.2-0.1 5.6-0.2 2.4-0.3 3.8t-0.1 1.4q-2.4 12.9-3 18.1-0.6 5.1 13 30zm93.8-0.6h0.7l0.7 0.9c0.4 0.66667 0.83333 1.5333 1.3 2.6 0.4 1.1333 0.76667 2.4 1.1 3.8 0.4 1.4 0.73333 2.8667 1 4.4 0.13333 0.8 0.26667 1.5667 0.4 2.3 0.13333 0.8 0.23333 1.6 0.3 2.4 0.2 1.6 0.36667 3.1 0.5 4.5 0.06667 1.4667 0.1 2.7667 0.1 3.9 13.067 1.9333 24.7 2.3 34.9 1.1s19.133-4 26.8-8.4c7.6-4.4 14.067-10.5 19.4-18.3 5.4-7.8 9.8-17.367 13.2-28.7 1.1628-9.5028 0.33258-12.45-3.4-22-1.4-3.8667-3.3333-7.3333-5.8-10.4-2.4-3.0667-5.2667-5.7667-8.6-8.1-3.2667-2.2667-6.8333-4.2333-10.7-5.9-3.8667-1.6-7.9333-2.9-12.2-3.9-4.2-1-8.4667-1.7333-12.8-2.2s-8.6-0.66667-12.8-0.6c-4.2 0.06667-8.2 0.33333-12 0.8-3.8667 0.46667-7.4 1.1333-10.6 2-0.4 0.8-0.6 1.8667-0.6 3.2 0.06667 1.3333 0.23333 2.8667 0.5 4.6 0.33333 1.8 0.66667 3.8 1 6 0.4 2.1333 0.73333 4.4333 1 6.9 0.26667 2.4667 0.4 5.0333 0.4 7.7 0 2.7333-0.26667 5.5-0.8 8.3-0.46667 2.8-1.0667 5.8-1.8 9-0.73333 3.0667-3.2834 6.2072-5.2168 9.0738-0.73333 4.9333-1.981 8.9595-2.8738 12.426-1.1333 3.4667-1.2427 7.6667-3.1094 12.6zm0 0q-0.4-0.1-0.7 0.2-0.4 0.3-0.7 0.8-3 3-5.6 5.7-2.7 2.7-5.3 5.1-2.5 2.5-5.1 4.6-2.5 2.2-5.2 4.1-2.7 1.8-5.5 3.4-2.9 1.6-6.1 2.8t-6.9 2.1q-3.6 0.9-7.8 1.4-7.2-1.3-13.6-4.1-6.5-2.9-12.2-7-5.7-4.1-9.7-9-4.6-5.9-8.4-10.8-12.7-23.1-12.5-27 0.3-4.5 3.1-18.4 0.2-0.8 1.3-3.3 1.2-2.5 2.7-4.7 1.8-2.3 3.9-4.3 2.1-2.1 5.2-4.5t6.4-4.6q3.3-2.3 6.6-4.2 3.2-1.8 6.2-3.1 3-1.4 5.4-1.9 6.2-1.9 11.8-2 5.7 0 10.9 1.5t9.9 4.4q4.8 2.8 9.1 6.7 4.3 3.9 8.3 8.6 3.9 4.7 7.5 9.9 3.5 5.2 6.7 10.7 3.3 5.5 6.2 11-1.5 6.4-3 12.9-1.4 6.5-2.9 13zm-93.8 0.6q-13.6-24.9-13-30 0.6-5.2 3-18.1 0 0 0.1-1.4t0.3-3.8q0.1-2.4 0.1-5.6 0.1-3.2 0-6.7-0.1-3.6-0.4-7.3t-1-7.2q-0.6-3.5-1.7-6.4-1-3-2.6-5.1-1.9-2.2-4.9-3.9-3-1.8-6.7-3.1-3.6-1.3-7.7-1.8-4-0.5-8 0-4.1 0.4-7.8 2.1-3.7 1.6-6.7 4.7-3.1 3-5.1 7.6-2.1 4.7-2.8 11.1 0.4 5.1 1.7 9.8 1.3 4.8 3.2 9.1 2 4.4 4.2 8.4 2.3 3.9 4.6 7.5 2.4 3.5 4.5 6.5 2.2 3 3.9 5.5 1.8 2.4 2.8 4.3t1.1 3.1q-4.8 7.3-8 14-3.3 6.7-5.1 12.8t-2.4 11.5q-0.5 5.4 0 10.1t1.9 8.8 3.5 7.4q2.1 3.4 4.8 6t5.8 4.5 6.5 3.1q3.3 1.1 6.7 1.5t6.6 0q3.3-0.4 6.3-1.6t5.5-3.3q2.6-2 4.5-4.8 2-2.8 3.1-6.5 1.1-3.7 1.3-8.3 0.3-2.8 0.4-5.7 0.1-3 0-5.9-0.1-3-0.3-5.8-0.2-2.9-0.5-5.4t-0.6-4.7q-0.3-2.1-0.6-3.7-0.2-1.6-0.3-1.9zm93.8-0.6q1.5-6.5 2.9-13 1.5-6.5 3-12.9-2.9-5.5-6.2-11-3.2-5.5-6.7-10.7-3.6-5.2-7.5-9.9-4-4.7-8.3-8.6-4.3-3.9-9.1-6.7-4.7-2.9-9.9-4.4t-10.9-1.5q-5.6 0.1-11.8 2-2.4 0.5-5.4 1.9-3 1.3-6.2 3.1-3.3 1.9-6.6 4.2-3.3 2.2-6.4 4.6t-5.2 4.5q-2.1 2-3.9 4.3-1.5 2.2-2.7 4.7-1.1 2.5-1.3 3.3-2.8 13.9-3.1 18.4-0.2 3.9 12.5 27 3.8 4.9 8.4 10.8 4 4.9 9.7 9 5.7 4.1 12.2 7 6.4 2.8 13.6 4.1 4.2-0.5 7.8-1.4 3.7-0.9 6.9-2.1t6.1-2.8q2.8-1.6 5.5-3.4 2.7-1.9 5.2-4.1 2.6-2.1 5.1-4.6 2.6-2.4 5.3-5.1 2.6-2.7 5.6-5.7 0.3-0.5 0.7-0.8 0.3-0.3 0.7-0.2zm0 0h0.7l0.7 0.9c0.4 0.66667 0.83333 1.5333 1.3 2.6 0.4 1.1333 0.76667 2.4 1.1 3.8 0.4 1.4 0.73333 2.8667 1 4.4 0.13333 0.8 0.26667 1.5667 0.4 2.3 0.13333 0.8 0.23333 1.6 0.3 2.4 0.2 1.6 0.36667 3.1 0.5 4.5 0.06667 1.4667 0.1 2.7667 0.1 3.9 13.067 1.9333 24.7 2.3 34.9 1.1s19.133-4 26.8-8.4c7.6-4.4 14.067-10.5 19.4-18.3 5.4-7.8 9.6262-17.019 13.2-28.7 0.06667 0-0.31678-1.8788 0.41409-4.0718-0.0311-4.6266-1.2-10.84-1.957-13.847-1.8667-0.4-1.7904-3.6145-1.857-4.0812-1.4-3.8667-3.3333-7.3333-5.8-10.4-2.4-3.0667-5.2667-5.7667-8.6-8.1-3.2667-2.2667-6.8333-4.2333-10.7-5.9-3.8667-1.6-7.9333-2.9-12.2-3.9-4.2-1-8.4667-1.7333-12.8-2.2s-8.6-0.66667-12.8-0.6c-4.2 0.06667-8.2 0.33333-12 0.8-3.8667 0.46667-7.4 1.1333-10.6 2-0.4 0.8-0.6 1.8667-0.6 3.2 0.06667 1.3333 0.23333 2.8667 0.5 4.6 0.33333 1.8 0.66667 3.8 1 6 0.4 2.1333 0.73333 4.4333 1 6.9 0.26667 2.4667 0.4 5.0333 0.4 7.7 0 2.7333-0.26667 5.5-0.8 8.3-0.46667 2.8-1.0667 5.8-1.8 9-0.73333 3.0667-3.1096 6.0333-5.043 8.9-1.081 5.281-1.6333 8.7857-2.7 12.252-1.1333 3.4667-2.4595 7.6667-3.457 12.948z" stroke="#000" stroke-linecap="round" stroke-linejoin="round" stroke-width=".3"/></g><g transform="matrix(.26458 0 0 .26458 51.333 18.012)" fill="none" stroke-width="0"><path d="m-154-12.6q-1.4 0.4-2.4 1.5t-1.5 2.6q-0.5 1.6-0.2 3.3t1.6 3.3q1.1 0.4 2.2 0.7 1.2 0.3 2.3 0.2 1.2-0.1 2.3-1 1-0.9 1.9-2.9 0.3-2.6-0.3-4.2-0.6-1.5-1.7-2.3-1.1-0.9-2.3-1.1-1.1-0.2-1.9-0.1zm6.3 82.9q-1 0.6-1.9 1.8-0.9 1.1-1.5 2.5t-0.6 2.8q0.1 1.5 0.9 2.8 1.2 2 3 2.6 1.7 0.6 3.6 0.2 1.9-0.5 3.2-1.6 1.4-1.2 1.8-2.7 0.4-1.8-0.2-3.6-0.6-1.7-1.9-3-1.2-1.3-2.9-1.8t-3.5 0zm24-34.7q1.2-1.3 3.1-2.9t4.3-3.4 5.1-3.6q2.6-1.8 5.4-3.5t5.6-3.2 5.3-2.6q2.6-1.2 4.8-1.9 2.1-0.7 3.8-0.8 4.2 0.3 7.3 1.7t5.1 3.7q2 2.2 2.9 4.9 1 2.8 0.9 5.8t-1.2 5.8q-1.1 2.9-3.2 5.5-2.1 2.5-5.1 4.3-3.1 1.8-7.1 2.6-1.4 0.1-3.3-0.1-2-0.1-4.4-0.5t-5.1-0.9q-2.7-0.6-5.5-1.4t-5.6-1.8q-2.7-1-5.2-2.2-2.4-1.2-4.5-2.6-2-1.4-3.4-2.9zm136.5-24.6t0 1.3q0.1 1.2 0.2 3.4 0 2.1 0.2 4.8 0.1 2.6 0.2 5.5 0.1 2.8 0.2 5.5t0.2 4.8 0.1 3.4q0.1 1.2 0.1 1.3 4.7 0.6 8.9 0.1 4.2-0.6 7.4-2.5 3.3-1.9 5.2-5.4 2-3.4 2.1-8.7-0.5-4.9-2.6-8.2t-5.5-5-7.6-1.8q-4.3-0.1-9.1 1.5zm-136.5 24.6q1.4 1.5 3.4 2.9 2.1 1.4 4.5 2.6 2.5 1.2 5.2 2.2 2.8 1 5.6 1.8t5.5 1.4q2.7 0.5 5.1 0.9t4.4 0.5q1.9 0.2 3.3 0.1 4-0.8 7.1-2.6 3-1.8 5.1-4.3 2.1-2.6 3.2-5.5 1.1-2.8 1.2-5.8t-0.9-5.8q-0.9-2.7-2.9-4.9-2-2.3-5.1-3.7t-7.3-1.7q-1.7 0.1-3.8 0.8-2.2 0.7-4.8 1.9-2.5 1.1-5.3 2.6t-5.6 3.2-5.4 3.5q-2.7 1.8-5.1 3.6t-4.3 3.4-3.1 2.9zm-30.3-48.2q-1.4 0.4-2.4 1.5t-1.5 2.6q-0.5 1.6-0.2 3.3t1.6 3.3q1.1 0.4 2.2 0.7 1.2 0.3 2.3 0.2 1.2-0.1 2.3-1 1-0.9 1.9-2.9 0.3-2.6-0.3-4.2-0.6-1.5-1.7-2.3-1.1-0.9-2.3-1.1-1.1-0.2-1.9-0.1zm6.3 82.9q-1 0.6-1.9 1.8-0.9 1.1-1.5 2.5t-0.6 2.8q0.1 1.5 0.9 2.8 1.2 2 3 2.6 1.7 0.6 3.6 0.2 1.9-0.5 3.2-1.6 1.4-1.2 1.8-2.7 0.4-1.8-0.2-3.6-0.6-1.7-1.9-3-1.2-1.3-2.9-1.8t-3.5 0zm160.5-59.3t0 1.3q0.1 1.2 0.2 3.4 0 2.1 0.2 4.8 0.1 2.6 0.2 5.5 0.1 2.8 0.2 5.5t0.2 4.8 0.1 3.4q0.1 1.2 0.1 1.3 4.7 0.6 8.9 0.1 4.2-0.6 7.4-2.5 3.3-1.9 5.2-5.4 2-3.4 2.1-8.7-0.5-4.9-2.6-8.2t-5.5-5-7.6-1.8q-4.3-0.1-9.1 1.5zm-185.7 27.896q-1.7-2.7-3.7-5.7-2-3.1-4-6.4-2.1-3.4-4.1-7.1t-3.7-7.9q-1.8-4.1-3.1-8.8-1.3-4.6-2-9.8-0.7-5.2-0.6-11 0.1-5.7 1.2-12.1 1.8-7.4 5-12.6t7.6-8.5q4.5-3.4 10.1-5.1 5.6-1.8 12.3-2.3 6.1 0.7 11.1 2.5 5.1 1.7 9.1 4.4 4 2.6 7.1 5.8t5.3 6.9q2.1 3.6 3.4 7.4 1.3 3.7 1.8 7.5 0.5 3.7 0.3 7.1-0.3 3.5-1.3 6.4 6-8.7 13.8-14.5 7.8-5.9 16.6-8.7 8.7-2.8 17.9-2.6 9.1 0.3 17.9 3.7 1.4 0.8 3.2 2.2 1.8 1.3 3.8 3.1 2.1 1.8 4.3 4 2.1 2.1 4.3 4.4 2.2 2.4 4.2 4.8 2 2.5 3.8 5 1.8 2.5 3.2 4.8 1.3 2.5 2.2 4.7 0 0-0.2-1.6-0.2-1.5-0.5-4t-0.7-5.7q-0.4-3.2-0.8-6.5-0.4-3.4-0.8-6.6-0.4-3.1-0.7-5.7-0.2-2.5-0.4-4t-0.2-1.6q5.5-0.7 11.9-1.6 6.4-1 13.5-1.7 7.1-0.7 14.6-0.8 7.5 0 15.2 1t15.4 3.4q7.6 2.5 15 6.9 7.4 4.3 14.3 11 6.9 6.6 13 16 0.1 0.6 1.9 1.1 1.7 0.4 4.6 0.8 2.8 0.3 6.3 0.5 3.5 0.3 7.2 0.3 3.7 0.1 7.2 0.1 3.4-0.1 6.2-0.2 2.7-0.2 4.3-0.6 1.6-0.3 1.5-0.7 1.3-1.1 1.7-2.5 0.3-1.6-0.1-3.5-0.5-1.9-1.6-4.2-1.1-2.3-2.8-4.9t-3.8-5.4q-2.2-2.8-4.7-5.7-2.4-2.9-5.1-5.8t-5.5-5.8q-2.8-2.9-5.6-5.7-2.7-2.7-5.4-5.3-2.6-2.6-5-4.8-2.3-2.3-4.3-4.2t-3.5-3.4-2.4-2.4q-0.9-1-1-1.3-0.2-0.4 0.5 0-0.1-1.6 3.3-1 3.3 0.7 9.4 3.2 6 2.5 14 6.7 7.9 4.2 17.1 9.8t18.9 12.4 19.2 14.6q9.5 7.7 18 16.1 8.6 8.5 15.5 17.3-3 7.9-8.5 15.6-5.5 7.8-12.7 15.2-7.3 7.3-15.4 13.9t-16.3 12.1q-8.3 5.6-15.8 9.6-7.6 4-13.7 6.3-6.1 2.2-9.9 2.2-3.9 0-4.7-2.4 3.4-2.2 6.5-5.3 3.1-3.1 6-6.9t5.4-8q2.5-4.1 4.5-8.1 2.1-4.1 3.6-7.7 1.5-3.7 2.4-6.6 0.8-2.8 1-4.5t-0.5-1.9q0.3-0.5-0.9-0.9-1.3-0.4-3.6-0.8t-5.4-0.8q-3.1-0.3-6.5-0.5-3.5-0.3-6.9-0.4-3.4-0.1-6.4-0.1-3 0.1-5.2 0.3-2.3 0.3-3.3 0.8-2.7 6.6-5.4 13.2-2.6 6.5-5.7 12.7t-7.1 11.8q-4.1 5.6-9.7 10.2t-13.2 8q-7.7 3.3-17.9 5.1t-23.6 1.7q-13.3-0.1-30.3-2.4 0.6-1 0.9-2.5 0.3-1.4 0.3-3.2 0.1-1.8 0-3.7-0.2-1.9-0.4-3.8-0.3-1.9-0.5-3.6-0.3-1.6-0.6-2.9-0.2-1.3-0.4-2t-0.2-0.7q0.1 0.6-0.6 2-0.7 1.3-2 3.3-1.3 1.9-3.1 4.2-1.7 2.3-3.9 4.7t-4.8 4.8q-2.5 2.3-5.2 4.4t-5.6 3.7q-2.8 1.6-5.7 2.6-2.2 1-5.2 1.2-2.9 0.2-6.4-0.4-3.5-0.5-7.2-1.7-3.7-1.1-7.3-2.8-3.7-1.6-7-3.7-3.3-2-6.1-4.4-2.8-2.3-4.7-4.8-2-2.5-2.8-5 2.8 4.5 4.1 8.8 1.4 4.2 1.5 8.1 0.1 3.9-0.9 7.3-1 3.5-2.8 6.6-1.8 3-4.3 5.6t-5.4 4.7q-3 2.2-6.3 3.8-3.2 1.6-6.5 2.8-0.1 0-1.1 0.3t-3 0.7q-1.9 0.5-4.6 0.7-2.7 0.3-6.1 0.1-3.3-0.2-7.2-1-3.8-0.8-8.1-2.6-4.3-1.7-8.8-4.6t-9.2-7.2q-5.4-6.6-8.1-13.5-2.7-6.8-3.4-13.5t0.2-13q0.8-6.3 2.6-11.9 1.8-5.5 4.1-10.1 2.2-4.6 4.3-7.9 2.1-3.4 3.5-5.1 1.4-1.8 1.6-1.8zm0 0q-0.2 0-1.6 1.8-1.4 1.7-3.5 5.1-2.1 3.3-4.3 7.9-2.3 4.6-4.1 10.1-1.8 5.6-2.6 11.9-0.9 6.3-0.2 13t3.4 13.5q2.7 6.9 8.1 13.5 4.7 4.3 9.2 7.2t8.8 4.6q4.3 1.8 8.1 2.6 3.9 0.8 7.2 1 3.4 0.2 6.1-0.1 2.7-0.2 4.6-0.7 2-0.4 3-0.7t1.1-0.3q3.3-1.2 6.5-2.8 3.3-1.6 6.3-3.8 2.9-2.1 5.4-4.7t4.3-5.6q1.8-3.1 2.8-6.6 1-3.4 0.9-7.3-0.1-3.9-1.5-8.1-1.3-4.3-4.1-8.8 0.8 2.5 2.8 5 1.9 2.5 4.7 4.8 2.8 2.4 6.1 4.4 3.3 2.1 7 3.7 3.6 1.7 7.3 2.8 3.7 1.2 7.2 1.7 3.5 0.6 6.4 0.4 3-0.2 5.2-1.2 2.9-1 5.7-2.6 2.9-1.6 5.6-3.7t5.2-4.4q2.6-2.4 4.8-4.8t3.9-4.7q1.8-2.3 3.1-4.2 1.3-2 2-3.3 0.7-1.4 0.6-2 0 0 0.2 0.7t0.4 2q0.3 1.3 0.6 2.9 0.2 1.7 0.5 3.6 0.2 1.9 0.4 3.8 0.1 1.9 0 3.7 0 1.8-0.3 3.2-0.3 1.5-0.9 2.5 17 2.3 30.3 2.4 13.4 0.1 23.6-1.7t17.9-5.1q7.6-3.4 13.2-8t9.7-10.2q4-5.6 7.1-11.8t5.7-12.7q2.7-6.6 5.4-13.2 1-0.5 3.3-0.8 2.2-0.2 5.2-0.3 3 0 6.4 0.1 3.4 0.1 6.9 0.4 3.4 0.2 6.5 0.5 3.1 0.4 5.4 0.8t3.6 0.8q1.2 0.4 0.9 0.9 0.7 0.2 0.5 1.9t-1 4.5q-0.9 2.9-2.4 6.6-1.5 3.6-3.6 7.7-2 4-4.5 8.1-2.5 4.2-5.4 8t-6 6.9q-3.1 3.1-6.5 5.3 0.8 2.4 4.7 2.4 3.8 0 9.9-2.2 6.1-2.3 13.7-6.3 7.5-4 15.8-9.6 8.2-5.5 16.3-12.1t15.4-13.9q7.2-7.4 12.7-15.2 5.5-7.7 8.5-15.6-6.9-8.8-15.5-17.3-8.5-8.4-18-16.1-9.5-7.8-19.2-14.6t-18.9-12.4-17.1-9.8q-8-4.2-14-6.7-6.1-2.5-9.4-3.2-3.4-0.6-3.3 1-0.7-0.4-0.5 0 0.1 0.3 1 1.3 0.9 0.9 2.4 2.4t3.5 3.4 4.3 4.2q2.4 2.2 5 4.8 2.7 2.6 5.4 5.3 2.8 2.8 5.6 5.7 2.8 2.9 5.5 5.8t5.1 5.8q2.5 2.9 4.7 5.7 2.1 2.8 3.8 5.4t2.8 4.9q1.1 2.3 1.6 4.2 0.4 1.9 0.1 3.5-0.4 1.4-1.7 2.5 0.1 0.4-1.5 0.7-1.6 0.4-4.3 0.6-2.8 0.1-6.2 0.2-3.5 0-7.2-0.1-3.7 0-7.2-0.3-3.5-0.2-6.3-0.5-2.9-0.4-4.6-0.8-1.8-0.5-1.9-1.1-6.1-9.4-13-16-6.9-6.7-14.3-11-7.4-4.4-15-6.9-7.7-2.4-15.4-3.4t-15.2-1q-7.5 0.1-14.6 0.8-7.1 0.7-13.5 1.7-6.4 0.9-11.9 1.6 0 0.1 0.2 1.6t0.4 4q0.3 2.6 0.7 5.7 0.4 3.2 0.8 6.6 0.4 3.3 0.8 6.5 0.4 3.2 0.7 5.7t0.5 4q0.2 1.6 0.2 1.6-0.9-2.2-2.2-4.7-1.4-2.3-3.2-4.8-1.8-2.5-3.8-5-2-2.4-4.2-4.8-2.2-2.3-4.3-4.4-2.2-2.2-4.3-4-2-1.8-3.8-3.1-1.8-1.4-3.2-2.2-8.8-3.4-17.9-3.7-9.2-0.2-17.9 2.6-8.8 2.8-16.6 8.7-7.8 5.8-13.8 14.5 1-2.9 1.3-6.4 0.2-3.4-0.3-7.1-0.5-3.8-1.8-7.5-1.3-3.8-3.4-7.4-2.2-3.7-5.3-6.9t-7.1-5.8q-4-2.7-9.1-4.4-5-1.8-11.1-2.5-6.7 0.5-12.3 2.3-5.6 1.7-10.1 5.1-4.4 3.3-7.6 8.5t-5 12.6q-1.1 6.4-1.2 12.1-0.1 5.8 0.6 11 0.7 5.2 2 9.8 1.3 4.7 3.1 8.8 1.7 4.2 3.7 7.9t4.1 7.1q2 3.3 4 6.4 2 3 3.7 5.7z" stroke="#000" stroke-linecap="round" stroke-linejoin="round" stroke-width=".3"/></g><g transform="matrix(.26458 0 0 .26458 51.258 17.95)" fill="none" stroke-width="0"><path d="m-154-12.6q-1.4 0.4-2.4 1.5t-1.5 2.6q-0.5 1.6-0.2 3.3t1.6 3.3q1.1 0.4 2.2 0.7 1.2 0.3 2.3 0.2 1.2-0.1 2.3-1 1-0.9 1.9-2.9 0.3-2.6-0.3-4.2-0.6-1.5-1.7-2.3-1.1-0.9-2.3-1.1-1.1-0.2-1.9-0.1zm6.3 82.9q-1 0.6-1.9 1.8-0.9 1.1-1.5 2.5t-0.6 2.8q0.1 1.5 0.9 2.8 1.2 2 3 2.6 1.7 0.6 3.6 0.2 1.9-0.5 3.2-1.6 1.4-1.2 1.8-2.7 0.4-1.8-0.2-3.6-0.6-1.7-1.9-3-1.2-1.3-2.9-1.8t-3.5 0zm24-34.7q1.2-1.3 3.1-2.9t4.3-3.4 5.1-3.6q2.6-1.8 5.4-3.5t5.6-3.2 5.3-2.6q2.6-1.2 4.8-1.9 2.1-0.7 3.8-0.8 4.2 0.3 7.3 1.7t5.1 3.7q2 2.2 2.9 4.9 1 2.8 0.9 5.8t-1.2 5.8q-1.1 2.9-3.2 5.5-2.1 2.5-5.1 4.3-3.1 1.8-7.1 2.6-1.4 0.1-3.3-0.1-2-0.1-4.4-0.5t-5.1-0.9q-2.7-0.6-5.5-1.4t-5.6-1.8q-2.7-1-5.2-2.2-2.4-1.2-4.5-2.6-2-1.4-3.4-2.9zm136.5-24.6t0 1.3q0.1 1.2 0.2 3.4 0 2.1 0.2 4.8 0.1 2.6 0.2 5.5 0.1 2.8 0.2 5.5t0.2 4.8 0.1 3.4q0.1 1.2 0.1 1.3 4.7 0.6 8.9 0.1 4.2-0.6 7.4-2.5 3.3-1.9 5.2-5.4 2-3.4 2.1-8.7-0.5-4.9-2.6-8.2t-5.5-5-7.6-1.8q-4.3-0.1-9.1 1.5zm-136.5 24.6q1.4 1.5 3.4 2.9 2.1 1.4 4.5 2.6 2.5 1.2 5.2 2.2 2.8 1 5.6 1.8t5.5 1.4q2.7 0.5 5.1 0.9t4.4 0.5q1.9 0.2 3.3 0.1 4-0.8 7.1-2.6 3-1.8 5.1-4.3 2.1-2.6 3.2-5.5 1.1-2.8 1.2-5.8t-0.9-5.8q-0.9-2.7-2.9-4.9-2-2.3-5.1-3.7t-7.3-1.7q-1.7 0.1-3.8 0.8-2.2 0.7-4.8 1.9-2.5 1.1-5.3 2.6t-5.6 3.2-5.4 3.5q-2.7 1.8-5.1 3.6t-4.3 3.4-3.1 2.9zm-30.3-48.2q-1.4 0.4-2.4 1.5t-1.5 2.6q-0.5 1.6-0.2 3.3t1.6 3.3q1.1 0.4 2.2 0.7 1.2 0.3 2.3 0.2 1.2-0.1 2.3-1 1-0.9 1.9-2.9 0.3-2.6-0.3-4.2-0.6-1.5-1.7-2.3-1.1-0.9-2.3-1.1-1.1-0.2-1.9-0.1zm6.3 82.9q-1 0.6-1.9 1.8-0.9 1.1-1.5 2.5t-0.6 2.8q0.1 1.5 0.9 2.8 1.2 2 3 2.6 1.7 0.6 3.6 0.2 1.9-0.5 3.2-1.6 1.4-1.2 1.8-2.7 0.4-1.8-0.2-3.6-0.6-1.7-1.9-3-1.2-1.3-2.9-1.8t-3.5 0zm160.5-59.3t0 1.3q0.1 1.2 0.2 3.4 0 2.1 0.2 4.8 0.1 2.6 0.2 5.5 0.1 2.8 0.2 5.5t0.2 4.8 0.1 3.4q0.1 1.2 0.1 1.3 4.7 0.6 8.9 0.1 4.2-0.6 7.4-2.5 3.3-1.9 5.2-5.4 2-3.4 2.1-8.7-0.5-4.9-2.6-8.2t-5.5-5-7.6-1.8q-4.3-0.1-9.1 1.5zm-166.62-30.25q-3.2 0.4-5.5 2.3-2.2 1.8-3.2 4.5-1.1 2.8-0.7 5.9 0.5 3.1 2.6 6.2 1.6 1.6 4 2.5t4.9 0.7q2.6-0.1 4.6-1.6 2.1-1.5 3.1-4.7 0.6-3 0.4-5.7-0.1-2.7-1.3-4.9-1.1-2.1-3.3-3.5t-5.6-1.7zm5.3 82.4q-2.6 0.2-4.6 2.3-1.9 2-3 4.9t-1.2 5.8q-0.1 3 0.9 5.1 1 1.9 2.5 3.1 1.4 1.3 3.1 2 1.8 0.7 3.6 0.8 1.9 0.2 3.7-0.2 1.8-0.3 3.5-1.1 1.6-0.8 2.9-2t2.1-2.7q0.8-1.6 0.9-3.5 0.2-3.8-1-6.8-1.3-3-3.6-5-2.2-2-4.9-2.8-2.6-0.7-4.9 0.1zm14.2-28.2q2-2.3 4.6-4.9 2.6-2.7 5.7-5.5 3-2.9 6.4-5.6 3.4-2.9 7-5.4 3.5-2.6 7.2-4.8 3.6-2.1 7.2-3.6 3.5-1.6 6.9-2.3 3.3-0.7 6.4-0.3 4.7 0.2 9.4 2.1t8.6 5.2q3.9 3.4 6.2 8.2t2.1 10.9q-0.1 1.9-0.6 4.1-0.4 2.1-1.2 4.4-0.9 2.3-2 4.6-1.2 2.3-2.6 4.5-1.5 2.2-3.2 4.1t-3.6 3.5q-2 1.5-4.1 2.6-2.2 1-4.5 1.5-7.5 0.2-15.1-1.4-7.5-1.6-14.8-4.7-7.2-3.2-13.8-7.6-6.6-4.3-12.2-9.6zm136.6-31.6q0 0.1 0.1 1.9 0.2 1.9 0.4 5.1 0.2 3.1 0.4 7.1 0.3 3.9 0.6 8.1 0.2 4.2 0.5 8.2 0.3 3.9 0.5 7.1t0.3 5q0.1 1.9 0.1 1.9 3.6 1 7.3 1.4 3.6 0.3 7.1 0.1 3.5-0.3 6.8-1.2 3.2-1 6.1-2.5 2.8-1.6 5.2-3.8 2.3-2.2 4-5.1 1.7-2.8 2.7-6.3 0.9-3.6 0.9-7.7-0.4-4.6-1.9-8.1-1.4-3.5-3.7-6.1-2.4-2.5-5.3-4.2t-6.2-2.6q-3.3-0.9-6.8-1.1-3.5-0.3-6.9 0t-6.5 1q-3.1 0.8-5.7 1.8zm-136.6 31.6q5.6 5.3 12.2 9.6 6.6 4.4 13.8 7.6 7.3 3.1 14.8 4.7 7.6 1.6 15.1 1.4 2.3-0.5 4.5-1.5 2.1-1.1 4.1-2.6 1.9-1.6 3.6-3.5t3.2-4.1q1.4-2.2 2.6-4.5 1.1-2.3 2-4.6 0.8-2.3 1.2-4.4 0.5-2.2 0.6-4.1 0.2-6.1-2.1-10.9t-6.2-8.2q-3.9-3.3-8.6-5.2t-9.4-2.1q-3.1-0.4-6.4 0.3-3.4 0.7-6.9 2.3-3.6 1.5-7.2 3.6-3.7 2.2-7.2 4.8-3.6 2.5-7 5.4-3.4 2.7-6.4 5.6-3.1 2.8-5.7 5.5-2.6 2.6-4.6 4.9zm-19.5-54.2q-3.2 0.4-5.5 2.3-2.2 1.8-3.2 4.5-1.1 2.8-0.7 5.9 0.5 3.1 2.6 6.2 1.6 1.6 4 2.5t4.9 0.7q2.6-0.1 4.6-1.6 2.1-1.5 3.1-4.7 0.6-3 0.4-5.7-0.1-2.7-1.3-4.9-1.1-2.1-3.3-3.5t-5.6-1.7zm5.3 82.4q-2.6 0.2-4.6 2.3-1.9 2-3 4.9t-1.2 5.8q-0.1 3 0.9 5.1 1 1.9 2.5 3.1 1.4 1.3 3.1 2 1.8 0.7 3.6 0.8 1.9 0.2 3.7-0.2 1.8-0.3 3.5-1.1 1.6-0.8 2.9-2t2.1-2.7q0.8-1.6 0.9-3.5 0.2-3.8-1-6.8-1.3-3-3.6-5-2.2-2-4.9-2.8-2.6-0.7-4.9 0.1zm150.8-59.8q0 0.1 0.1 1.9 0.2 1.9 0.4 5.1 0.2 3.1 0.4 7.1 0.3 3.9 0.6 8.1 0.2 4.2 0.5 8.2 0.3 3.9 0.5 7.1t0.3 5q0.1 1.9 0.1 1.9 3.6 1 7.3 1.4 3.6 0.3 7.1 0.1 3.5-0.3 6.8-1.2 3.2-1 6.1-2.5 2.8-1.6 5.2-3.8 2.3-2.2 4-5.1 1.7-2.8 2.7-6.3 0.9-3.6 0.9-7.7-0.4-4.6-1.9-8.1-1.4-3.5-3.7-6.1-2.4-2.5-5.3-4.2t-6.2-2.6q-3.3-0.9-6.8-1.1-3.5-0.3-6.9 0t-6.5 1q-3.1 0.8-5.7 1.8z" stroke="#000" stroke-linecap="round" stroke-linejoin="round" stroke-width=".3"/></g><path d="m13.43 48.127c-1.4692-0.35815-3.141-1.3583-4.2218-2.5256-1.8237-1.9698-2.6034-4.3552-2.4282-7.4289 0.16652-2.9223 1.2083-5.9474 3.1995-9.2903 1.1306-1.8981 1.1956-1.6408-1.327-5.2549-1.9121-2.7394-3.7098-6.1988-4.2479-8.1746-0.63566-2.3338-0.26603-4.6355 1.0553-6.5715 1.9246-2.82 6.568-3.3241 10.27-1.115 1.9183 1.1448 2.5755 3.3835 2.5755 8.7728 0 2.5919-0.0903 3.7951-0.43981 5.8604-0.34429 2.0344-0.40152 2.7784-0.2635 3.4255 0.097 0.45468 0.88386 2.2599 1.7486 4.0116 1.3553 2.7453 1.6049 3.4007 1.8086 4.7486 0.67629 4.476 0.501 8.4651-0.45754 10.412-1.3144 2.67-4.1503 3.8906-7.2715 3.1297zm0.26514-8.4773c1.0081-0.52132 1.0992-1.8888 0.19066-2.8615-0.37227-0.39852-0.67907-0.54673-1.1275-0.54468-0.76519 0.0035-0.93118 0.11069-1.4201 0.91701-0.54664 0.90158-0.50251 1.5733 0.14598 2.2217 0.60981 0.60981 1.3708 0.70184 2.2109 0.26739zm-1.8422-22.474c0.56221-0.71473 0.51395-1.8014-0.1055-2.3755-1.0505-0.97361-2.4567-0.25641-2.4567 1.253 0 1.1711 0.39256 1.5628 1.5963 1.5927 0.423 0.0105 0.6899-0.11942 0.96582-0.4702z" fill="#028700" stroke-width=".18397"/><path d="m31.219 40.115c-4.4081-1.2602-8.2751-4.7446-10.909-9.8296-0.62238-1.2015-1.0592-2.1498-0.97067-2.1073 0.0885 0.04248 0.69904 0.3387 1.3567 0.65827 1.5743 0.76496 3.9377 1.432 5.9411 1.6769 1.4786 0.18072 1.7071 0.16441 2.6526-0.18935 2.1208-0.79351 3.4333-2.6046 3.4403-4.7474 8e-3 -2.3443-1.4476-3.9358-3.823-4.181-0.76297-0.07874-1.2155 0.0071-2.3396 0.44352-1.6994 0.65987-4.3257 2.2136-6.4233 3.8l-1.5637 1.1826-0.23868-0.67118c-0.38112-1.0717 0.31299-5.1706 1.1572-6.8333 1.3846-2.7272 6.8531-6.3783 10.651-7.1113 2.6842-0.51804 5.2131 0.02943 7.7486 1.6774 1.428 0.92813 4.1245 3.6684 5.4836 5.5727 1.3378 1.8743 2.6994 5.0426 2.6994 5.4502 0 0.16763 0.19666 2.4754-0.32902 4.4997l-0.71926 3.0892-1.0948 1.7633c-2.6286 4.2335-5.7892 5.0567-8.7896 5.8352-1.75 0.45405-2.4038 0.45762-3.9296 0.02142z" fill="#f2ee00" stroke-width=".18397"/><path d="m50.591 39.46c-0.10118-0.03513-0.82555-0.11844-1.6097-0.18514l-2.4664 0.0088-1e-6 -0.0076c-2.37e-4 -2.346 1.4421-17.924 0.93143-22.48-0.16757-1.4951-0.13708-4.4873-0.21272-5.2246-0.0676-0.65884 3.6551-0.44134 8.0485-0.44134 3.2825 0 4.0216 0.05584 5.7029 0.43089 4.4072 1.5189 7.796 3.1031 9.223 7.1374 1.0713 3.0287 1.2772 9.775-1.673 14.622-1.9128 3.1426-4.1973 4.899-11.229 5.9652-1.5255 0.23132-6.2009 0.35264-6.7148 0.17425zm7.6038-10.861c1.8565-0.55131 3.0043-2.1119 3.0229-4.11 0.0179-1.9258-1.1692-3.6252-2.8517-4.0822-0.79084-0.21483-3.2447-0.13613-3.6546 0.11721-0.16013 0.09897-0.1809 1.1479-0.0813 4.1066 0.0736 2.1855 0.17247 4.0364 0.21979 4.1129 0.15116 0.24458 2.3552 0.14929 3.3449-0.14462z" fill="#b80000" stroke-width=".18397"/><circle cx="15.637" cy="17.477" r=".024504" fill="#b80000" stroke="#000" stroke-width=".26458"/><path d="m27.898 32.957c-2.0088-0.25655-3.8709-0.83749-6.0709-1.894-1.9436-0.93336-4.7543-2.7781-5.593-3.6709l-0.40042-0.42622 1.9514-1.8631c2.9902-2.8549 5.8048-4.871 8.222-5.8894 0.97557-0.41103 1.4267-0.48666 2.9028-0.48666 1.5829 0 1.8643 0.05525 2.9845 0.58593 2.3464 1.1115 3.9097 3.0967 4.1315 5.2465 0.29667 2.8744-1.8192 6.76-4.377 8.0382-1.2116 0.60546-1.563 0.63916-3.7509 0.35974zm1.8467-2.7997c1.68-0.78232 3.0301-2.7974 3.0274-4.5187-0.0038-2.4115-1.9099-4.2488-4.4009-4.2422-1.5468 0.0041-4.9283 1.7522-8.2457 4.2627-0.93593 0.70826-1.7017 1.4001-1.7017 1.5375 0 0.54031 2.083 1.7438 4.2543 2.4579 3.0561 1.0051 5.5993 1.1861 7.0666 0.50283z" fill="#17031f" stroke="#000" stroke-width=".18397"/><path d="m53.672 30.491c-0.92413-0.16854-0.96597-0.20135-0.96925-0.76-0.0019-0.32112-0.16123-2.8991-0.35411-5.7288-0.19287-2.8297-0.3146-5.2034-0.27049-5.2747 0.16232-0.26265 2.6724-0.71021 3.9831-0.71021 4.2713 0 7.0045 2.3827 6.9769 6.0822-0.03325 4.4538-4.2423 7.3261-9.3661 6.3916zm4.2845-1.9036c1.2679-0.32817 2.215-1.0162 2.7859-2.024 1.3079-2.3086 0.16792-5.4801-2.209-6.1456-0.94291-0.264-3.5161-0.18629-3.8177 0.11529-0.11197 0.11197-0.13155 1.6348-0.05262 4.0911 0.12008 3.7369 0.14301 3.9197 0.51009 4.0682 0.59861 0.24209 1.5861 0.20482 2.7832-0.10503z" fill="#17031f" stroke="#000" stroke-width=".18397"/><path d="m9.7346 18.319c-1.7471-0.7607-2.0633-3.1299-0.61141-4.5818 0.68694-0.68694 0.76736-0.71788 1.6464-0.63341 1.4314 0.13754 2.3839 1.2599 2.3839 2.8092 0 2.0404-1.6278 3.1859-3.419 2.406zm2.0476-0.92593c0.33225-0.33225 0.45155-0.65038 0.45155-1.2041 0-1.6577-1.9449-2.3171-2.6743-0.90667-0.50033 0.96752-0.25886 2.0614 0.52473 2.3771 0.70076 0.28234 1.2328 0.1989 1.698-0.2663z" fill="#17031f" stroke="#000" stroke-width=".18397"/><path d="m11.498 40.716c-0.47768-0.19864-1.187-0.81091-1.4192-1.225-0.36434-0.64974-0.28389-2.2333 0.1616-3.181 1.3396-2.8498 5.3117-1.511 5.3618 1.8071 0.01439 0.95394-0.32102 1.572-1.2156 2.2399-0.49971 0.37309-2.3128 0.59846-2.8886 0.35904zm2.1168-0.90056c0.70179-0.33302 1.1077-1.139 0.93003-1.8468-0.20052-0.79893-1.0804-1.5437-1.8238-1.5437-0.73221 0-1.1554 0.34498-1.5336 1.2502-0.33722 0.80708-0.04673 1.7707 0.64741 2.1477 0.63912 0.34708 1.0363 0.34542 1.78-0.0075z" fill="#17031f" stroke="#000" stroke-width=".18397"/></g></svg>
