<?xml version="1.0" encoding="UTF-8"?>
<svg width="85.642mm" height="98.688mm" fill-rule="evenodd" image-rendering="optimizeQuality" shape-rendering="geometricPrecision" text-rendering="geometricPrecision" version="1.1" viewBox="0 0 6322.2 8741.4" xml:space="preserve" xmlns="http://www.w3.org/2000/svg" xmlns:cc="http://creativecommons.org/ns#" xmlns:dc="http://purl.org/dc/elements/1.1/" xmlns:rdf="http://www.w3.org/1999/02/22-rdf-syntax-ns#"><metadata><rdf:RDF><cc:Work rdf:about=""><dc:format>image/svg+xml</dc:format><dc:type rdf:resource="http://purl.org/dc/dcmitype/StillImage"/></cc:Work></rdf:RDF></metadata><defs><style type="text/css">
   
    .str1 {stroke:#131516;stroke-width:3}
    .str0 {stroke:#131516;stroke-width:42}
    .fil0 {fill:none}
    .fil1 {fill:#131516}
   
  </style></defs><path class="fil1 str1" d="m-818.33 8493.6c724.98-489.53 1266.4-860.11 1615.1-1116.3 348.72-251.63 715.8-567.3 1092.1-942.46s692.86-800.63 949.82-1271.9c201.89-347.7 376.26-750.31 518.5-1207.8 142.24-452.93 215.66-892.13 229.42-1308.5 0-388.88-50.473-759.46-156.01-1107.2-100.95-352.28-275.31-640.51-523.09-873.83-247.78-228.75-568.97-343.13-968.17-343.13-385.43 0-747.92 77.776-1087.5 228.75-334.96 155.55-573.56 402.6-706.63 750.31 0 32.025-18.354 73.201-45.885 132.68 9.177 73.201 45.885 128.1 114.71 169.28 68.827 41.175 128.48 59.476 183.54 59.476 27.531 0 105.54-13.725 224.84-41.175 123.89-27.45 224.84-45.75 307.43-45.75 243.19 0 458.85 86.926 656.15 256.2 192.72 169.28 289.07 375.15 289.07 617.63 0 173.85-50.473 338.55-146.83 489.53s-229.42 274.5-399.2 361.43c-169.77 91.501-357.9 132.68-559.79 132.68-367.08 0-679.1-109.8-936.05-333.98-252.37-228.75-380.84-516.98-380.84-878.41 0-462.08 142.24-860.11 422.14-1198.7 284.49-338.55 642.39-590.18 1082.9-759.46 435.91-173.85 876.4-256.2 1326.1-256.2 490.97 0 958.99 123.53 1394.9 375.15 440.49 247.05 784.63 590.18 1041.6 1015.7 256.96 430.05 390.02 887.56 390.02 1381.7 0 878.41-293.66 1692.8-880.99 2447.6-587.33 754.88-1312.3 1409.1-2179.5 1967.3-578.15 379.73-1514.2 892.13-2803.6 1537.2zm6373.4-7077.6c0-164.7 59.65-301.95 178.95-411.75 114.71-114.38 256.96-169.28 426.73-169.28 146.83 0 284.49 64.05 408.38 187.58 123.89 118.95 183.54 260.78 183.54 416.33 0 164.7-64.239 306.53-183.54 420.9-128.48 109.8-270.72 164.7-431.32 164.7-169.77 0-307.43-54.9-417.55-178.43-110.12-118.95-165.19-260.78-165.19-430.05zm0 2397.3c0-164.7 59.65-306.53 169.77-416.33 114.71-114.38 256.96-169.28 435.91-169.28 146.83 0 279.9 59.476 408.38 183 119.3 123.53 183.54 256.2 183.54 402.6 0 178.43-59.65 320.25-174.36 434.63-119.3 114.38-256.96 173.85-417.55 173.85-178.95 0-321.19-59.476-435.91-169.28-110.12-109.8-169.77-256.2-169.77-439.2z" fill="#131516" stroke="#131516" stroke-width="13.745"/><path d="m-750.84 8607.4c-24.779-40.094-34.663-81.056-21.964-91.029 12.699-9.9719 406.36-282.49 874.8-605.59 1619.7-1117.2 2308.4-1827.3 2872-2961.4 441.71-888.91 616.2-1548.7 619.12-2341 5.3523-1450.5-605.3-2308-1643.6-2308-462.91 0-1105.6 176.55-1396.3 383.59-275.49 196.16-534.14 701.3-436.59 852.65 62.084 96.326 155.77 112.29 562.06 95.758 419.48-17.066 519.05 1.3809 713.04 132.11 505.74 340.82 580 829.24 193.08 1269.9-607.23 691.59-1904.6 317.54-2076.5-598.68-153.4-817.7 505.75-1770.3 1478.7-2137 1211.7-456.67 2360.7-267.37 3201.1 527.39 1018.8 963.57 1163.1 2374 386.24 3776.6-595.4 1074.9-1714.6 2097.9-3279.7 2997.5-1119.2 643.35-2001.7 1077.9-2045.4 1007.2z" fill="#800000" stroke-width="65.943"/><path d="m5816.7 1844.2c-554.5-466.58 101.4-1267.6 671.04-819.47 341.73 268.81 255.68 773.45-156.39 917.1-281.13 98.002-282.46 97.75-514.65-97.627z" fill="#800000" stroke-width="65.943"/><path d="m5775.7 4227c-220.22-220.22-220.22-577.1 0-797.31 339.94-339.94 919.61-88.646 919.61 398.66 0 487.3-579.67 738.59-919.61 398.66z" fill="#800000" stroke-width="65.943"/></svg>
