<svg xmlns="http://www.w3.org/2000/svg" width="4.78mm" height="3.41mm" viewBox="0 0 4.78 3.41">
 <style>
    /* Targeting the ID 'p' */
    #p { 
      animation: fade 3s ease-in-out infinite; 
    }
    @keyframes fade {
      0%, 100% { opacity: 0; }
      20%, 80% { opacity: 1; }
    }
 </style>
 <g transform="translate(1.8788 -143.81)">
   <path id="p" d="m-1.0379 147.14c-0.44461-0.0701-0.63162-0.21954-0.74582-0.56123-0.1215-0.56071-0.1236-1.485-0.023635-1.8671 0.10274-0.32722 0.27002-0.70885 0.6829-0.79257 0.6706-0.15147 2.596-0.14783 3.224-0.0156 0.36796 0.11634 0.68229 0.35517 0.74298 0.82849 0.060013 0.38168 0.11181 1.3141-0.042649 1.8615-0.080663 0.27855-0.31718 0.44085-0.73185 0.53213-0.73138 0.10997-2.308 0.12714-3.106 0.0144zm2.4445-1.6152-1.2723-0.62778v1.2486c0.013215 2e-3 0.91676-0.43652 1.2741-0.62259z" fill="#cd201f"/>
 </g>
</svg>
